solid ascii_stl
  facet normal 0 0 -1
    outer loop
      vertex 7.190142631530762 17.603912353515625 -1
      vertex 7.190142631530762 64.95596313476562 -1
      vertex 84.22109985351562 17.603912353515625 -1
    endloop
  endfacet
  facet normal 0 0 -1
    outer loop
      vertex 7.190142631530762 64.95596313476562 -1
      vertex 7.190142631530762 112.30801391601562 -1
      vertex 84.22109985351562 112.30801391601562 -1
    endloop
  endfacet
  facet normal 0 0 -1
    outer loop
      vertex 7.190142631530762 112.30801391601562 -1
      vertex 7.190142631530762 159.66006469726562 -1
      vertex 84.22109985351562 112.30801391601562 -1
    endloop
  endfacet
  facet normal 0 0 -1
    outer loop
      vertex 84.22109985351562 17.603912353515625 -1
      vertex 84.22109985351562 64.95596313476562 -1
      vertex 161.25204467773438 17.603912353515625 -1
    endloop
  endfacet
  facet normal 0 0 -1
    outer loop
      vertex 84.22109985351562 64.95596313476562 -1
      vertex 84.22109985351562 112.30801391601562 -1
      vertex 161.25204467773438 112.30801391601562 -1
    endloop
  endfacet
  facet normal 0 0 -1
    outer loop
      vertex 84.22109985351562 112.30801391601562 -1
      vertex 84.22109985351562 159.66006469726562 -1
      vertex 161.25204467773438 159.66006469726562 -1
    endloop
  endfacet
  facet normal 0 0 -1
    outer loop
      vertex 161.25204467773438 17.603912353515625 -1
      vertex 161.25204467773438 64.95596313476562 -1
      vertex 238.2830047607422 17.603912353515625 -1
    endloop
  endfacet
  facet normal 0 0 -1
    outer loop
      vertex 161.25204467773438 64.95596313476562 -1
      vertex 161.25204467773438 112.30801391601562 -1
      vertex 238.2830047607422 112.30801391601562 -1
    endloop
  endfacet
  facet normal 0 0 -1
    outer loop
      vertex 161.25204467773438 112.30801391601562 -1
      vertex 161.25204467773438 159.66006469726562 -1
      vertex 238.2830047607422 159.66006469726562 -1
    endloop
  endfacet
  facet normal 0 -0 1
    outer loop
      vertex 238.2830047607422 17.603912353515625 57.55690002441406
      vertex 238.2830047607422 64.95596313476562 57.55690002441406
      vertex 161.25204467773438 64.95596313476562 57.55690002441406
    endloop
  endfacet
  facet normal 0 -0 1
    outer loop
      vertex 238.2830047607422 64.95596313476562 57.55690002441406
      vertex 238.2830047607422 112.30801391601562 57.55690002441406
      vertex 161.25204467773438 64.95596313476562 57.55690002441406
    endloop
  endfacet
  facet normal 0 -0 1
    outer loop
      vertex 238.2830047607422 112.30801391601562 57.55690002441406
      vertex 238.2830047607422 159.66006469726562 57.55690002441406
      vertex 161.25204467773438 112.30801391601562 57.55690002441406
    endloop
  endfacet
  facet normal 0 -0 1
    outer loop
      vertex 161.25204467773438 17.603912353515625 57.55690002441406
      vertex 161.25204467773438 64.95596313476562 57.55690002441406
      vertex 84.22109985351562 64.95596313476562 57.55690002441406
    endloop
  endfacet
  facet normal 0 -0 1
    outer loop
      vertex 161.25204467773438 64.95596313476562 57.55690002441406
      vertex 161.25204467773438 112.30801391601562 57.55690002441406
      vertex 84.22109985351562 64.95596313476562 57.55690002441406
    endloop
  endfacet
  facet normal 0 -0 1
    outer loop
      vertex 161.25204467773438 112.30801391601562 57.55690002441406
      vertex 161.25204467773438 159.66006469726562 57.55690002441406
      vertex 84.22109985351562 159.66006469726562 57.55690002441406
    endloop
  endfacet
  facet normal 0 -0 1
    outer loop
      vertex 84.22109985351562 17.603912353515625 57.55690002441406
      vertex 84.22109985351562 64.95596313476562 57.55690002441406
      vertex 7.190142631530762 64.95596313476562 57.55690002441406
    endloop
  endfacet
  facet normal 0 -0 1
    outer loop
      vertex 84.22109985351562 64.95596313476562 57.55690002441406
      vertex 84.22109985351562 112.30801391601562 57.55690002441406
      vertex 7.190142631530762 112.30801391601562 57.55690002441406
    endloop
  endfacet
  facet normal 0 -0 1
    outer loop
      vertex 84.22109985351562 112.30801391601562 57.55690002441406
      vertex 84.22109985351562 159.66006469726562 57.55690002441406
      vertex 7.190142631530762 159.66006469726562 57.55690002441406
    endloop
  endfacet
  facet normal 1 0 0
    outer loop
      vertex 238.2830047607422 17.603912353515625 -1
      vertex 238.2830047607422 64.95596313476562 -1
      vertex 238.2830047607422 64.95596313476562 18.518966674804688
    endloop
  endfacet
  facet normal 1 0 0
    outer loop
      vertex 238.2830047607422 64.95596313476562 -1
      vertex 238.2830047607422 112.30801391601562 -1
      vertex 238.2830047607422 64.95596313476562 18.518966674804688
    endloop
  endfacet
  facet normal 1 0 0
    outer loop
      vertex 238.2830047607422 112.30801391601562 -1
      vertex 238.2830047607422 159.66006469726562 -1
      vertex 238.2830047607422 112.30801391601562 18.518966674804688
    endloop
  endfacet
  facet normal 1 0 0
    outer loop
      vertex 238.2830047607422 17.603912353515625 18.518966674804688
      vertex 238.2830047607422 64.95596313476562 18.518966674804688
      vertex 238.2830047607422 64.95596313476562 38.037933349609375
    endloop
  endfacet
  facet normal 1 0 0
    outer loop
      vertex 238.2830047607422 64.95596313476562 18.518966674804688
      vertex 238.2830047607422 112.30801391601562 18.518966674804688
      vertex 238.2830047607422 112.30801391601562 38.037933349609375
    endloop
  endfacet
  facet normal 1 0 0
    outer loop
      vertex 238.2830047607422 112.30801391601562 18.518966674804688
      vertex 238.2830047607422 159.66006469726562 18.518966674804688
      vertex 238.2830047607422 159.66006469726562 38.037933349609375
    endloop
  endfacet
  facet normal 1 0 0
    outer loop
      vertex 238.2830047607422 17.603912353515625 38.037933349609375
      vertex 238.2830047607422 64.95596313476562 38.037933349609375
      vertex 238.2830047607422 17.603912353515625 57.55690002441406
    endloop
  endfacet
  facet normal 1 0 0
    outer loop
      vertex 238.2830047607422 64.95596313476562 38.037933349609375
      vertex 238.2830047607422 112.30801391601562 38.037933349609375
      vertex 238.2830047607422 112.30801391601562 57.55690002441406
    endloop
  endfacet
  facet normal 1 0 0
    outer loop
      vertex 238.2830047607422 112.30801391601562 38.037933349609375
      vertex 238.2830047607422 159.66006469726562 38.037933349609375
      vertex 238.2830047607422 159.66006469726562 57.55690002441406
    endloop
  endfacet
  facet normal 0 1 0
    outer loop
      vertex 238.2830047607422 159.66006469726562 -1
      vertex 161.25204467773438 159.66006469726562 -1
      vertex 161.25204467773438 159.66006469726562 18.518966674804688
    endloop
  endfacet
  facet normal 0 1 0
    outer loop
      vertex 161.25204467773438 159.66006469726562 -1
      vertex 84.22109985351562 159.66006469726562 -1
      vertex 84.22109985351562 159.66006469726562 18.518966674804688
    endloop
  endfacet
  facet normal 0 1 0
    outer loop
      vertex 84.22109985351562 159.66006469726562 -1
      vertex 7.190142631530762 159.66006469726562 -1
      vertex 7.190142631530762 159.66006469726562 18.518966674804688
    endloop
  endfacet
  facet normal 0 1 -0
    outer loop
      vertex 238.2830047607422 159.66006469726562 18.518966674804688
      vertex 161.25204467773438 159.66006469726562 18.518966674804688
      vertex 238.2830047607422 159.66006469726562 38.037933349609375
    endloop
  endfacet
  facet normal 0 1 -0
    outer loop
      vertex 161.25204467773438 159.66006469726562 18.518966674804688
      vertex 84.22109985351562 159.66006469726562 18.518966674804688
      vertex 161.25204467773438 159.66006469726562 38.037933349609375
    endloop
  endfacet
  facet normal 0 1 -0
    outer loop
      vertex 84.22109985351562 159.66006469726562 18.518966674804688
      vertex 7.190142631530762 159.66006469726562 18.518966674804688
      vertex 84.22109985351562 159.66006469726562 38.037933349609375
    endloop
  endfacet
  facet normal 0 1 0
    outer loop
      vertex 238.2830047607422 159.66006469726562 38.037933349609375
      vertex 161.25204467773438 159.66006469726562 38.037933349609375
      vertex 161.25204467773438 159.66006469726562 57.55690002441406
    endloop
  endfacet
  facet normal 0 1 0
    outer loop
      vertex 161.25204467773438 159.66006469726562 38.037933349609375
      vertex 84.22109985351562 159.66006469726562 38.037933349609375
      vertex 84.22109985351562 159.66006469726562 57.55690002441406
    endloop
  endfacet
  facet normal 0 1 0
    outer loop
      vertex 84.22109985351562 159.66006469726562 38.037933349609375
      vertex 7.190142631530762 159.66006469726562 38.037933349609375
      vertex 7.190142631530762 159.66006469726562 57.55690002441406
    endloop
  endfacet
  facet normal -1 0 0
    outer loop
      vertex 7.190142631530762 159.66006469726562 -1
      vertex 7.190142631530762 112.30801391601562 -1
      vertex 7.190142631530762 112.30801391601562 18.518966674804688
    endloop
  endfacet
  facet normal -1 0 0
    outer loop
      vertex 7.190142631530762 112.30801391601562 -1
      vertex 7.190142631530762 64.95596313476562 -1
      vertex 7.190142631530762 64.95596313476562 18.518966674804688
    endloop
  endfacet
  facet normal -1 0 0
    outer loop
      vertex 7.190142631530762 64.95596313476562 -1
      vertex 7.190142631530762 17.603912353515625 -1
      vertex 7.190142631530762 17.603912353515625 18.518966674804688
    endloop
  endfacet
  facet normal -1 0 0
    outer loop
      vertex 7.190142631530762 159.66006469726562 18.518966674804688
      vertex 7.190142631530762 112.30801391601562 18.518966674804688
      vertex 7.190142631530762 159.66006469726562 38.037933349609375
    endloop
  endfacet
  facet normal -1 0 0
    outer loop
      vertex 7.190142631530762 112.30801391601562 18.518966674804688
      vertex 7.190142631530762 64.95596313476562 18.518966674804688
      vertex 7.190142631530762 64.95596313476562 38.037933349609375
    endloop
  endfacet
  facet normal -1 0 0
    outer loop
      vertex 7.190142631530762 64.95596313476562 18.518966674804688
      vertex 7.190142631530762 17.603912353515625 18.518966674804688
      vertex 7.190142631530762 17.603912353515625 38.037933349609375
    endloop
  endfacet
  facet normal -1 0 0
    outer loop
      vertex 7.190142631530762 159.66006469726562 38.037933349609375
      vertex 7.190142631530762 112.30801391601562 38.037933349609375
      vertex 7.190142631530762 159.66006469726562 57.55690002441406
    endloop
  endfacet
  facet normal -1 0 0
    outer loop
      vertex 7.190142631530762 112.30801391601562 38.037933349609375
      vertex 7.190142631530762 64.95596313476562 38.037933349609375
      vertex 7.190142631530762 112.30801391601562 57.55690002441406
    endloop
  endfacet
  facet normal -1 0 0
    outer loop
      vertex 7.190142631530762 64.95596313476562 38.037933349609375
      vertex 7.190142631530762 17.603912353515625 38.037933349609375
      vertex 7.190142631530762 64.95596313476562 57.55690002441406
    endloop
  endfacet
  facet normal 0 -1 0
    outer loop
      vertex 7.190142631530762 17.603912353515625 -1
      vertex 84.22109985351562 17.603912353515625 -1
      vertex 7.190142631530762 17.603912353515625 18.518966674804688
    endloop
  endfacet
  facet normal 0 -1 0
    outer loop
      vertex 84.22109985351562 17.603912353515625 -1
      vertex 161.25204467773438 17.603912353515625 -1
      vertex 84.22109985351562 17.603912353515625 18.518966674804688
    endloop
  endfacet
  facet normal 0 -1 0
    outer loop
      vertex 161.25204467773438 17.603912353515625 -1
      vertex 238.2830047607422 17.603912353515625 -1
      vertex 161.25204467773438 17.603912353515625 18.518966674804688
    endloop
  endfacet
  facet normal 0 -1 0
    outer loop
      vertex 7.190142631530762 17.603912353515625 18.518966674804688
      vertex 84.22109985351562 17.603912353515625 18.518966674804688
      vertex 84.22109985351562 17.603912353515625 38.037933349609375
    endloop
  endfacet
  facet normal 0 -1 0
    outer loop
      vertex 84.22109985351562 17.603912353515625 18.518966674804688
      vertex 161.25204467773438 17.603912353515625 18.518966674804688
      vertex 161.25204467773438 17.603912353515625 38.037933349609375
    endloop
  endfacet
  facet normal 0 -1 0
    outer loop
      vertex 161.25204467773438 17.603912353515625 18.518966674804688
      vertex 238.2830047607422 17.603912353515625 18.518966674804688
      vertex 238.2830047607422 17.603912353515625 38.037933349609375
    endloop
  endfacet
  facet normal 0 -1 0
    outer loop
      vertex 7.190142631530762 17.603912353515625 38.037933349609375
      vertex 84.22109985351562 17.603912353515625 38.037933349609375
      vertex 7.190142631530762 17.603912353515625 57.55690002441406
    endloop
  endfacet
  facet normal 0 -1 0
    outer loop
      vertex 84.22109985351562 17.603912353515625 38.037933349609375
      vertex 161.25204467773438 17.603912353515625 38.037933349609375
      vertex 84.22109985351562 17.603912353515625 57.55690002441406
    endloop
  endfacet
  facet normal 0 -1 0
    outer loop
      vertex 161.25204467773438 17.603912353515625 38.037933349609375
      vertex 238.2830047607422 17.603912353515625 38.037933349609375
      vertex 161.25204467773438 17.603912353515625 57.55690002441406
    endloop
  endfacet
  facet normal 0 0 -1
    outer loop
      vertex 7.190142631530762 64.95596313476562 -1
      vertex 84.22109985351562 64.95596313476562 -1
      vertex 84.22109985351562 17.603912353515625 -1
    endloop
  endfacet
  facet normal 0 0 -1
    outer loop
      vertex 7.190142631530762 64.95596313476562 -1
      vertex 84.22109985351562 112.30801391601562 -1
      vertex 84.22109985351562 64.95596313476562 -1
    endloop
  endfacet
  facet normal 0 0 -1
    outer loop
      vertex 7.190142631530762 159.66006469726562 -1
      vertex 84.22109985351562 159.66006469726562 -1
      vertex 84.22109985351562 112.30801391601562 -1
    endloop
  endfacet
  facet normal 0 0 -1
    outer loop
      vertex 84.22109985351562 64.95596313476562 -1
      vertex 161.25204467773438 64.95596313476562 -1
      vertex 161.25204467773438 17.603912353515625 -1
    endloop
  endfacet
  facet normal 0 0 -1
    outer loop
      vertex 84.22109985351562 64.95596313476562 -1
      vertex 161.25204467773438 112.30801391601562 -1
      vertex 161.25204467773438 64.95596313476562 -1
    endloop
  endfacet
  facet normal 0 0 -1
    outer loop
      vertex 84.22109985351562 112.30801391601562 -1
      vertex 161.25204467773438 159.66006469726562 -1
      vertex 161.25204467773438 112.30801391601562 -1
    endloop
  endfacet
  facet normal 0 0 -1
    outer loop
      vertex 161.25204467773438 64.95596313476562 -1
      vertex 238.2830047607422 64.95596313476562 -1
      vertex 238.2830047607422 17.603912353515625 -1
    endloop
  endfacet
  facet normal 0 0 -1
    outer loop
      vertex 161.25204467773438 64.95596313476562 -1
      vertex 238.2830047607422 112.30801391601562 -1
      vertex 238.2830047607422 64.95596313476562 -1
    endloop
  endfacet
  facet normal 0 0 -1
    outer loop
      vertex 161.25204467773438 112.30801391601562 -1
      vertex 238.2830047607422 159.66006469726562 -1
      vertex 238.2830047607422 112.30801391601562 -1
    endloop
  endfacet
  facet normal 0 0 1
    outer loop
      vertex 238.2830047607422 17.603912353515625 57.55690002441406
      vertex 161.25204467773438 64.95596313476562 57.55690002441406
      vertex 161.25204467773438 17.603912353515625 57.55690002441406
    endloop
  endfacet
  facet normal 0 0 1
    outer loop
      vertex 238.2830047607422 112.30801391601562 57.55690002441406
      vertex 161.25204467773438 112.30801391601562 57.55690002441406
      vertex 161.25204467773438 64.95596313476562 57.55690002441406
    endloop
  endfacet
  facet normal 0 0 1
    outer loop
      vertex 238.2830047607422 159.66006469726562 57.55690002441406
      vertex 161.25204467773438 159.66006469726562 57.55690002441406
      vertex 161.25204467773438 112.30801391601562 57.55690002441406
    endloop
  endfacet
  facet normal 0 0 1
    outer loop
      vertex 161.25204467773438 17.603912353515625 57.55690002441406
      vertex 84.22109985351562 64.95596313476562 57.55690002441406
      vertex 84.22109985351562 17.603912353515625 57.55690002441406
    endloop
  endfacet
  facet normal 0 0 1
    outer loop
      vertex 161.25204467773438 112.30801391601562 57.55690002441406
      vertex 84.22109985351562 112.30801391601562 57.55690002441406
      vertex 84.22109985351562 64.95596313476562 57.55690002441406
    endloop
  endfacet
  facet normal 0 0 1
    outer loop
      vertex 161.25204467773438 112.30801391601562 57.55690002441406
      vertex 84.22109985351562 159.66006469726562 57.55690002441406
      vertex 84.22109985351562 112.30801391601562 57.55690002441406
    endloop
  endfacet
  facet normal 0 0 1
    outer loop
      vertex 84.22109985351562 17.603912353515625 57.55690002441406
      vertex 7.190142631530762 64.95596313476562 57.55690002441406
      vertex 7.190142631530762 17.603912353515625 57.55690002441406
    endloop
  endfacet
  facet normal 0 0 1
    outer loop
      vertex 84.22109985351562 64.95596313476562 57.55690002441406
      vertex 7.190142631530762 112.30801391601562 57.55690002441406
      vertex 7.190142631530762 64.95596313476562 57.55690002441406
    endloop
  endfacet
  facet normal 0 0 1
    outer loop
      vertex 84.22109985351562 112.30801391601562 57.55690002441406
      vertex 7.190142631530762 159.66006469726562 57.55690002441406
      vertex 7.190142631530762 112.30801391601562 57.55690002441406
    endloop
  endfacet
  facet normal 1 0 0
    outer loop
      vertex 238.2830047607422 17.603912353515625 -1
      vertex 238.2830047607422 64.95596313476562 18.518966674804688
      vertex 238.2830047607422 17.603912353515625 18.518966674804688
    endloop
  endfacet
  facet normal 1 0 -0
    outer loop
      vertex 238.2830047607422 112.30801391601562 -1
      vertex 238.2830047607422 112.30801391601562 18.518966674804688
      vertex 238.2830047607422 64.95596313476562 18.518966674804688
    endloop
  endfacet
  facet normal 1 0 -0
    outer loop
      vertex 238.2830047607422 159.66006469726562 -1
      vertex 238.2830047607422 159.66006469726562 18.518966674804688
      vertex 238.2830047607422 112.30801391601562 18.518966674804688
    endloop
  endfacet
  facet normal 1 0 0
    outer loop
      vertex 238.2830047607422 17.603912353515625 18.518966674804688
      vertex 238.2830047607422 64.95596313476562 38.037933349609375
      vertex 238.2830047607422 17.603912353515625 38.037933349609375
    endloop
  endfacet
  facet normal 1 0 0
    outer loop
      vertex 238.2830047607422 64.95596313476562 18.518966674804688
      vertex 238.2830047607422 112.30801391601562 38.037933349609375
      vertex 238.2830047607422 64.95596313476562 38.037933349609375
    endloop
  endfacet
  facet normal 1 0 0
    outer loop
      vertex 238.2830047607422 112.30801391601562 18.518966674804688
      vertex 238.2830047607422 159.66006469726562 38.037933349609375
      vertex 238.2830047607422 112.30801391601562 38.037933349609375
    endloop
  endfacet
  facet normal 1 0 -0
    outer loop
      vertex 238.2830047607422 64.95596313476562 38.037933349609375
      vertex 238.2830047607422 64.95596313476562 57.55690002441406
      vertex 238.2830047607422 17.603912353515625 57.55690002441406
    endloop
  endfacet
  facet normal 1 0 0
    outer loop
      vertex 238.2830047607422 64.95596313476562 38.037933349609375
      vertex 238.2830047607422 112.30801391601562 57.55690002441406
      vertex 238.2830047607422 64.95596313476562 57.55690002441406
    endloop
  endfacet
  facet normal 1 0 0
    outer loop
      vertex 238.2830047607422 112.30801391601562 38.037933349609375
      vertex 238.2830047607422 159.66006469726562 57.55690002441406
      vertex 238.2830047607422 112.30801391601562 57.55690002441406
    endloop
  endfacet
  facet normal 0 1 -0
    outer loop
      vertex 238.2830047607422 159.66006469726562 -1
      vertex 161.25204467773438 159.66006469726562 18.518966674804688
      vertex 238.2830047607422 159.66006469726562 18.518966674804688
    endloop
  endfacet
  facet normal 0 1 -0
    outer loop
      vertex 161.25204467773438 159.66006469726562 -1
      vertex 84.22109985351562 159.66006469726562 18.518966674804688
      vertex 161.25204467773438 159.66006469726562 18.518966674804688
    endloop
  endfacet
  facet normal 0 1 -0
    outer loop
      vertex 84.22109985351562 159.66006469726562 -1
      vertex 7.190142631530762 159.66006469726562 18.518966674804688
      vertex 84.22109985351562 159.66006469726562 18.518966674804688
    endloop
  endfacet
  facet normal 0 1 0
    outer loop
      vertex 161.25204467773438 159.66006469726562 18.518966674804688
      vertex 161.25204467773438 159.66006469726562 38.037933349609375
      vertex 238.2830047607422 159.66006469726562 38.037933349609375
    endloop
  endfacet
  facet normal 0 1 0
    outer loop
      vertex 84.22109985351562 159.66006469726562 18.518966674804688
      vertex 84.22109985351562 159.66006469726562 38.037933349609375
      vertex 161.25204467773438 159.66006469726562 38.037933349609375
    endloop
  endfacet
  facet normal 0 1 0
    outer loop
      vertex 7.190142631530762 159.66006469726562 18.518966674804688
      vertex 7.190142631530762 159.66006469726562 38.037933349609375
      vertex 84.22109985351562 159.66006469726562 38.037933349609375
    endloop
  endfacet
  facet normal 0 1 -0
    outer loop
      vertex 238.2830047607422 159.66006469726562 38.037933349609375
      vertex 161.25204467773438 159.66006469726562 57.55690002441406
      vertex 238.2830047607422 159.66006469726562 57.55690002441406
    endloop
  endfacet
  facet normal 0 1 -0
    outer loop
      vertex 161.25204467773438 159.66006469726562 38.037933349609375
      vertex 84.22109985351562 159.66006469726562 57.55690002441406
      vertex 161.25204467773438 159.66006469726562 57.55690002441406
    endloop
  endfacet
  facet normal 0 1 -0
    outer loop
      vertex 84.22109985351562 159.66006469726562 38.037933349609375
      vertex 7.190142631530762 159.66006469726562 57.55690002441406
      vertex 84.22109985351562 159.66006469726562 57.55690002441406
    endloop
  endfacet
  facet normal -1 0 0
    outer loop
      vertex 7.190142631530762 159.66006469726562 -1
      vertex 7.190142631530762 112.30801391601562 18.518966674804688
      vertex 7.190142631530762 159.66006469726562 18.518966674804688
    endloop
  endfacet
  facet normal -1 0 0
    outer loop
      vertex 7.190142631530762 112.30801391601562 -1
      vertex 7.190142631530762 64.95596313476562 18.518966674804688
      vertex 7.190142631530762 112.30801391601562 18.518966674804688
    endloop
  endfacet
  facet normal -1 0 0
    outer loop
      vertex 7.190142631530762 64.95596313476562 -1
      vertex 7.190142631530762 17.603912353515625 18.518966674804688
      vertex 7.190142631530762 64.95596313476562 18.518966674804688
    endloop
  endfacet
  facet normal -1 0 0
    outer loop
      vertex 7.190142631530762 112.30801391601562 18.518966674804688
      vertex 7.190142631530762 112.30801391601562 38.037933349609375
      vertex 7.190142631530762 159.66006469726562 38.037933349609375
    endloop
  endfacet
  facet normal -1 0 0
    outer loop
      vertex 7.190142631530762 112.30801391601562 18.518966674804688
      vertex 7.190142631530762 64.95596313476562 38.037933349609375
      vertex 7.190142631530762 112.30801391601562 38.037933349609375
    endloop
  endfacet
  facet normal -1 0 0
    outer loop
      vertex 7.190142631530762 64.95596313476562 18.518966674804688
      vertex 7.190142631530762 17.603912353515625 38.037933349609375
      vertex 7.190142631530762 64.95596313476562 38.037933349609375
    endloop
  endfacet
  facet normal -1 0 0
    outer loop
      vertex 7.190142631530762 112.30801391601562 38.037933349609375
      vertex 7.190142631530762 112.30801391601562 57.55690002441406
      vertex 7.190142631530762 159.66006469726562 57.55690002441406
    endloop
  endfacet
  facet normal -1 0 0
    outer loop
      vertex 7.190142631530762 64.95596313476562 38.037933349609375
      vertex 7.190142631530762 64.95596313476562 57.55690002441406
      vertex 7.190142631530762 112.30801391601562 57.55690002441406
    endloop
  endfacet
  facet normal -1 0 0
    outer loop
      vertex 7.190142631530762 17.603912353515625 38.037933349609375
      vertex 7.190142631530762 17.603912353515625 57.55690002441406
      vertex 7.190142631530762 64.95596313476562 57.55690002441406
    endloop
  endfacet
  facet normal 0 -1 0
    outer loop
      vertex 84.22109985351562 17.603912353515625 -1
      vertex 84.22109985351562 17.603912353515625 18.518966674804688
      vertex 7.190142631530762 17.603912353515625 18.518966674804688
    endloop
  endfacet
  facet normal 0 -1 0
    outer loop
      vertex 161.25204467773438 17.603912353515625 -1
      vertex 161.25204467773438 17.603912353515625 18.518966674804688
      vertex 84.22109985351562 17.603912353515625 18.518966674804688
    endloop
  endfacet
  facet normal 0 -1 0
    outer loop
      vertex 238.2830047607422 17.603912353515625 -1
      vertex 238.2830047607422 17.603912353515625 18.518966674804688
      vertex 161.25204467773438 17.603912353515625 18.518966674804688
    endloop
  endfacet
  facet normal 0 -1 0
    outer loop
      vertex 7.190142631530762 17.603912353515625 18.518966674804688
      vertex 84.22109985351562 17.603912353515625 38.037933349609375
      vertex 7.190142631530762 17.603912353515625 38.037933349609375
    endloop
  endfacet
  facet normal 0 -1 0
    outer loop
      vertex 84.22109985351562 17.603912353515625 18.518966674804688
      vertex 161.25204467773438 17.603912353515625 38.037933349609375
      vertex 84.22109985351562 17.603912353515625 38.037933349609375
    endloop
  endfacet
  facet normal 0 -1 0
    outer loop
      vertex 161.25204467773438 17.603912353515625 18.518966674804688
      vertex 238.2830047607422 17.603912353515625 38.037933349609375
      vertex 161.25204467773438 17.603912353515625 38.037933349609375
    endloop
  endfacet
  facet normal 0 -1 0
    outer loop
      vertex 84.22109985351562 17.603912353515625 38.037933349609375
      vertex 84.22109985351562 17.603912353515625 57.55690002441406
      vertex 7.190142631530762 17.603912353515625 57.55690002441406
    endloop
  endfacet
  facet normal 0 -1 0
    outer loop
      vertex 161.25204467773438 17.603912353515625 38.037933349609375
      vertex 161.25204467773438 17.603912353515625 57.55690002441406
      vertex 84.22109985351562 17.603912353515625 57.55690002441406
    endloop
  endfacet
  facet normal 0 -1 0
    outer loop
      vertex 238.2830047607422 17.603912353515625 38.037933349609375
      vertex 238.2830047607422 17.603912353515625 57.55690002441406
      vertex 161.25204467773438 17.603912353515625 57.55690002441406
    endloop
  endfacet
endsolid ascii_stl
