solid ascii_stl
  facet normal 0 0 -1
    outer loop
      vertex -1.8098573684692383 8.603912353515625 0
      vertex -1.8098573684692383 168.66006469726562 0
      vertex 247.2830047607422 168.66006469726562 0
    endloop
  endfacet
  facet normal 0 -0 1
    outer loop
      vertex 247.2830047607422 8.603912353515625 66.55690002441406
      vertex 247.2830047607422 168.66006469726562 66.55690002441406
      vertex -1.8098573684692383 168.66006469726562 66.55690002441406
    endloop
  endfacet
  facet normal 1 0 0
    outer loop
      vertex 247.2830047607422 8.603912353515625 0
      vertex 247.2830047607422 168.66006469726562 0
      vertex 247.2830047607422 168.66006469726562 66.55690002441406
    endloop
  endfacet
  facet normal 0 1 0
    outer loop
      vertex 247.2830047607422 168.66006469726562 0
      vertex -1.8098573684692383 168.66006469726562 0
      vertex -1.8098573684692383 168.66006469726562 66.55690002441406
    endloop
  endfacet
  facet normal -1 0 0
    outer loop
      vertex -1.8098573684692383 168.66006469726562 0
      vertex -1.8098573684692383 8.603912353515625 0
      vertex -1.8098573684692383 8.603912353515625 66.55690002441406
    endloop
  endfacet
  facet normal 0 -1 0
    outer loop
      vertex -1.8098573684692383 8.603912353515625 0
      vertex 247.2830047607422 8.603912353515625 0
      vertex 247.2830047607422 8.603912353515625 66.55690002441406
    endloop
  endfacet
  facet normal 0 0 -1
    outer loop
      vertex -1.8098573684692383 8.603912353515625 0
      vertex 247.2830047607422 168.66006469726562 0
      vertex 247.2830047607422 8.603912353515625 0
    endloop
  endfacet
  facet normal 0 0 1
    outer loop
      vertex 247.2830047607422 8.603912353515625 66.55690002441406
      vertex -1.8098573684692383 168.66006469726562 66.55690002441406
      vertex -1.8098573684692383 8.603912353515625 66.55690002441406
    endloop
  endfacet
  facet normal 1 0 0
    outer loop
      vertex 247.2830047607422 8.603912353515625 0
      vertex 247.2830047607422 168.66006469726562 66.55690002441406
      vertex 247.2830047607422 8.603912353515625 66.55690002441406
    endloop
  endfacet
  facet normal 0 1 -0
    outer loop
      vertex 247.2830047607422 168.66006469726562 0
      vertex -1.8098573684692383 168.66006469726562 66.55690002441406
      vertex 247.2830047607422 168.66006469726562 66.55690002441406
    endloop
  endfacet
  facet normal -1 0 0
    outer loop
      vertex -1.8098573684692383 168.66006469726562 0
      vertex -1.8098573684692383 8.603912353515625 66.55690002441406
      vertex -1.8098573684692383 168.66006469726562 66.55690002441406
    endloop
  endfacet
  facet normal 0 -1 0
    outer loop
      vertex -1.8098573684692383 8.603912353515625 0
      vertex 247.2830047607422 8.603912353515625 66.55690002441406
      vertex -1.8098573684692383 8.603912353515625 66.55690002441406
    endloop
  endfacet
endsolid ascii_stl
