solid ascii_stl
  facet normal 0 -0 -1
    outer loop
      vertex 34.900001525878906 64.9000015258789 0
      vertex 34.900001525878906 -14.899999618530273 0
      vertex -14.899999618530273 -14.899999618530273 0
    endloop
  endfacet
  facet normal 0 0 1
    outer loop
      vertex -14.899999618530273 64.9000015258789 22.899999618530273
      vertex -14.899999618530273 -14.899999618530273 22.899999618530273
      vertex 34.900001525878906 -14.899999618530273 22.899999618530273
    endloop
  endfacet
  facet normal -1 0 0
    outer loop
      vertex -14.899999618530273 64.9000015258789 0
      vertex -14.899999618530273 -14.899999618530273 0
      vertex -14.899999618530273 -14.899999618530273 22.899999618530273
    endloop
  endfacet
  facet normal 0 -1 0
    outer loop
      vertex -14.899999618530273 -14.899999618530273 0
      vertex 34.900001525878906 -14.899999618530273 0
      vertex 34.900001525878906 -14.899999618530273 22.899999618530273
    endloop
  endfacet
  facet normal 1 0 0
    outer loop
      vertex 34.900001525878906 -14.899999618530273 0
      vertex 34.900001525878906 64.9000015258789 0
      vertex 34.900001525878906 64.9000015258789 22.899999618530273
    endloop
  endfacet
  facet normal 0 1 0
    outer loop
      vertex 34.900001525878906 64.9000015258789 0
      vertex -14.899999618530273 64.9000015258789 0
      vertex -14.899999618530273 64.9000015258789 22.899999618530273
    endloop
  endfacet
  facet normal -0 0 -1
    outer loop
      vertex 34.900001525878906 64.9000015258789 0
      vertex -14.899999618530273 -14.899999618530273 0
      vertex -14.899999618530273 64.9000015258789 0
    endloop
  endfacet
  facet normal -0 0 1
    outer loop
      vertex -14.899999618530273 64.9000015258789 22.899999618530273
      vertex 34.900001525878906 -14.899999618530273 22.899999618530273
      vertex 34.900001525878906 64.9000015258789 22.899999618530273
    endloop
  endfacet
  facet normal -1 0 0
    outer loop
      vertex -14.899999618530273 64.9000015258789 0
      vertex -14.899999618530273 -14.899999618530273 22.899999618530273
      vertex -14.899999618530273 64.9000015258789 22.899999618530273
    endloop
  endfacet
  facet normal 0 -1 0
    outer loop
      vertex -14.899999618530273 -14.899999618530273 0
      vertex 34.900001525878906 -14.899999618530273 22.899999618530273
      vertex -14.899999618530273 -14.899999618530273 22.899999618530273
    endloop
  endfacet
  facet normal 1 0 0
    outer loop
      vertex 34.900001525878906 -14.899999618530273 0
      vertex 34.900001525878906 64.9000015258789 22.899999618530273
      vertex 34.900001525878906 -14.899999618530273 22.899999618530273
    endloop
  endfacet
  facet normal 0 1 -0
    outer loop
      vertex 34.900001525878906 64.9000015258789 0
      vertex -14.899999618530273 64.9000015258789 22.899999618530273
      vertex 34.900001525878906 64.9000015258789 22.899999618530273
    endloop
  endfacet
endsolid ascii_stl
