solid ascii_stl
  facet normal -0.24675854 0.32870382 0.9116271
    outer loop
      vertex 5.230081081390381 15.729557037353516 7.336287498474121
      vertex 4.457371711730957 15.149482727050781 7.336287498474121
      vertex 5.694664001464844 14.254676818847656 7.99383544921875
    endloop
  endfacet
  facet normal 0.25156784 0.33511022 0.9079729
    outer loop
      vertex 5.694664001464844 14.254676818847656 7.99383544921875
      vertex 6.875964164733887 15.149482727050781 7.336287498474121
      vertex 6.103254795074463 15.729557037353516 7.336287498474121
    endloop
  endfacet
  facet normal 0.25048274 -0.3336653 0.90880466
    outer loop
      vertex 5.694664001464844 14.254676818847656 7.99383544921875
      vertex 6.103254795074463 12.770442008972168 7.336287498474121
      vertex 6.875964164733887 13.350515365600586 7.336287498474121
    endloop
  endfacet
  facet normal -0.2457103 -0.327308 0.91241217
    outer loop
      vertex 4.457371711730957 13.350515365600586 7.336287498474121
      vertex 5.230081081390381 12.770442008972168 7.336287498474121
      vertex 5.694664001464844 14.254676818847656 7.99383544921875
    endloop
  endfacet
  facet normal -0.68940717 0 0.724374
    outer loop
      vertex 4.457371711730957 15.149482727050781 7.336287498474121
      vertex 3.5856523513793945 14.249999046325684 6.50664758682251
      vertex 4.457371711730957 13.350515365600586 7.336287498474121
    endloop
  endfacet
  facet normal 0.48636064 -0 0.8737582
    outer loop
      vertex 6.875964164733887 13.350515365600586 7.336287498474121
      vertex 6.875964164733887 15.149482727050781 7.336287498474121
      vertex 5.694664001464844 14.254676818847656 7.99383544921875
    endloop
  endfacet
  facet normal 0.68940717 -0 0.724374
    outer loop
      vertex 6.875964164733887 13.350515365600586 7.336287498474121
      vertex 7.747683525085449 14.249999046325684 6.50664758682251
      vertex 6.875964164733887 15.149482727050781 7.336287498474121
    endloop
  endfacet
  facet normal -0.4692868 0 0.8830458
    outer loop
      vertex 4.457371711730957 15.149482727050781 7.336287498474121
      vertex 4.457371711730957 13.350515365600586 7.336287498474121
      vertex 5.694664001464844 14.254676818847656 7.99383544921875
    endloop
  endfacet
  facet normal -0.8130114 0.3852165 0.43660125
    outer loop
      vertex 4.457371711730957 15.149482727050781 7.336287498474121
      vertex 3.66510272026062 15.738779067993164 5.341033458709717
      vertex 3.5856523513793945 14.249999046325684 6.50664758682251
    endloop
  endfacet
  facet normal 0.45766813 -0.7931802 0.40175244
    outer loop
      vertex 7.556475639343262 12.844346046447754 5.826716899871826
      vertex 6.103254795074463 12.770442008972168 7.336287498474121
      vertex 6.399568557739258 11.766258239746094 5.016171932220459
    endloop
  endfacet
  facet normal 0.11670835 -0.9059372 0.40700978
    outer loop
      vertex 6.103254795074463 12.770442008972168 7.336287498474121
      vertex 4.9746503829956055 11.904808044433594 5.733150482177734
      vertex 6.399568557739258 11.766258239746094 5.016171932220459
    endloop
  endfacet
  facet normal -0.62999475 -0.76871854 0.11035603
    outer loop
      vertex 4.9746503829956055 11.904808044433594 5.733150482177734
      vertex 3.8289573192596436 12.883095741271973 6.007238864898682
      vertex 3.633976459503174 12.738067626953125 3.8839049339294434
    endloop
  endfacet
  facet normal -0.0614132 -0.9956305 0.07034468
    outer loop
      vertex 4.9746503829956055 11.904808044433594 5.733150482177734
      vertex 4.935225963592529 11.771202087402344 3.8077263832092285
      vertex 6.399568557739258 11.766258239746094 5.016171932220459
    endloop
  endfacet
  facet normal -0.8109245 0.3614724 -0.46015123
    outer loop
      vertex 3.5856523513793945 14.249999046325684 2.363330125808716
      vertex 3.6987924575805664 15.713720321655273 3.3137714862823486
      vertex 4.457371711730957 15.149482727050781 1.5336897373199463
    endloop
  endfacet
  facet normal -0.6532563 0.7566639 -0.026755838
    outer loop
      vertex 4.917221546173096 16.789812088012695 4.493527889251709
      vertex 4.192470073699951 16.128271102905273 3.480076313018799
      vertex 3.66510272026062 15.738779067993164 5.341033458709717
    endloop
  endfacet
  facet normal -0.14428535 0.9667764 -0.21100992
    outer loop
      vertex 5.768213748931885 16.661998748779297 3.3260347843170166
      vertex 5.039032936096191 16.377004623413086 2.518890380859375
      vertex 4.917221546173096 16.789812088012695 4.493527889251709
    endloop
  endfacet
  facet normal 0.9578182 0.21072033 -0.19540018
    outer loop
      vertex 8.205277442932129 14.249999046325684 4.606377124786377
      vertex 7.747683525085449 14.249999046325684 2.363330125808716
      vertex 7.677082538604736 15.745361328125 3.6298608779907227
    endloop
  endfacet
  facet normal 0.8139503 -0.40207526 -0.41930947
    outer loop
      vertex 7.747683525085449 14.249999046325684 2.363330125808716
      vertex 7.680548191070557 12.752059936523438 3.6693809032440186
      vertex 6.875964164733887 13.350515365600586 1.5336897373199463
    endloop
  endfacet
  facet normal 0.5749706 -0.8165929 -0.05084158
    outer loop
      vertex 7.680548191070557 12.752059936523438 3.6693809032440186
      vertex 6.399568557739258 11.766258239746094 5.016171932220459
      vertex 6.373083114624023 11.8560152053833 3.2750134468078613
    endloop
  endfacet
  facet normal -0.33977574 -0.84402823 -0.4149323
    outer loop
      vertex 5.230081081390381 12.770442008972168 1.5336897373199463
      vertex 5.6128387451171875 12.09997844696045 2.584074020385742
      vertex 4.935225963592529 11.771202087402344 3.8077263832092285
    endloop
  endfacet
  facet normal -0.35678944 -0.8373409 -0.41419986
    outer loop
      vertex 4.935225963592529 11.771202087402344 3.8077263832092285
      vertex 4.359595775604248 12.490324974060059 2.849801778793335
      vertex 5.230081081390381 12.770442008972168 1.5336897373199463
    endloop
  endfacet
  facet normal -0.9493322 -0.23742583 -0.20590632
    outer loop
      vertex 3.118461847305298 14.249999046325684 4.517314434051514
      vertex 3.5856523513793945 14.249999046325684 2.363330125808716
      vertex 3.633976459503174 12.738067626953125 3.8839049339294434
    endloop
  endfacet
  facet normal 0 0.41347346 -0.91051614
    outer loop
      vertex 5.230081081390381 15.729557037353516 1.5336897373199463
      vertex 6.103254795074463 15.729557037353516 1.5336897373199463
      vertex 5.673399925231934 14.283506393432617 0.877025306224823
    endloop
  endfacet
  facet normal -0 -0.39811945 -0.9173336
    outer loop
      vertex 6.103254795074463 12.770442008972168 1.5336897373199463
      vertex 5.230081081390381 12.770442008972168 1.5336897373199463
      vertex 5.673399925231934 14.283506393432617 0.877025306224823
    endloop
  endfacet
  facet normal -0.24400799 -0.32504037 -0.91367877
    outer loop
      vertex 5.230081081390381 12.770442008972168 1.5336897373199463
      vertex 4.457371711730957 13.350515365600586 1.5336897373199463
      vertex 5.673399925231934 14.283506393432617 0.877025306224823
    endloop
  endfacet
  facet normal 0 0.40719602 0.9133408
    outer loop
      vertex 5.694664001464844 14.254676818847656 7.99383544921875
      vertex 6.103254795074463 15.729557037353516 7.336287498474121
      vertex 5.230081081390381 15.729557037353516 7.336287498474121
    endloop
  endfacet
  facet normal 0 -0.4050518 0.91429377
    outer loop
      vertex 5.694664001464844 14.254676818847656 7.99383544921875
      vertex 5.230081081390381 12.770442008972168 7.336287498474121
      vertex 6.103254795074463 12.770442008972168 7.336287498474121
    endloop
  endfacet
  facet normal -0.9485453 0.22502913 0.22276378
    outer loop
      vertex 3.5856523513793945 14.249999046325684 6.50664758682251
      vertex 3.66510272026062 15.738779067993164 5.341033458709717
      vertex 3.118461847305298 14.249999046325684 4.517314434051514
    endloop
  endfacet
  facet normal -0.44812506 0.820342 0.3552787
    outer loop
      vertex 3.66510272026062 15.738779067993164 5.341033458709717
      vertex 5.230081081390381 15.729557037353516 7.336287498474121
      vertex 4.917221546173096 16.789812088012695 4.493527889251709
    endloop
  endfacet
  facet normal 0.5302707 0.70636666 0.46889135
    outer loop
      vertex 6.875964164733887 15.149482727050781 7.336287498474121
      vertex 7.575054168701172 15.669471740722656 5.762341022491455
      vertex 6.103254795074463 15.729557037353516 7.336287498474121
    endloop
  endfacet
  facet normal 0.8092305 0.34699446 0.47406837
    outer loop
      vertex 7.747683525085449 14.249999046325684 6.50664758682251
      vertex 7.575054168701172 15.669471740722656 5.762341022491455
      vertex 6.875964164733887 15.149482727050781 7.336287498474121
    endloop
  endfacet
  facet normal 0.94417506 -0.23841156 0.22736172
    outer loop
      vertex 7.556475639343262 12.844346046447754 5.826716899871826
      vertex 8.205277442932129 14.249999046325684 4.606377124786377
      vertex 7.747683525085449 14.249999046325684 6.50664758682251
    endloop
  endfacet
  facet normal 0 -0.8799192 0.4751234
    outer loop
      vertex 4.9746503829956055 11.904808044433594 5.733150482177734
      vertex 6.103254795074463 12.770442008972168 7.336287498474121
      vertex 5.230081081390381 12.770442008972168 7.336287498474121
    endloop
  endfacet
  facet normal -0.5924773 -0.80272615 0.06783289
    outer loop
      vertex 4.935225963592529 11.771202087402344 3.8077263832092285
      vertex 4.9746503829956055 11.904808044433594 5.733150482177734
      vertex 3.633976459503174 12.738067626953125 3.8839049339294434
    endloop
  endfacet
  facet normal -0.9349206 0.3542976 -0.019916264
    outer loop
      vertex 3.6987924575805664 15.713720321655273 3.3137714862823486
      vertex 3.118461847305298 14.249999046325684 4.517314434051514
      vertex 3.66510272026062 15.738779067993164 5.341033458709717
    endloop
  endfacet
  facet normal -0.6523396 0.6377767 -0.40950456
    outer loop
      vertex 4.457371711730957 15.149482727050781 1.5336897373199463
      vertex 4.192470073699951 16.128271102905273 3.480076313018799
      vertex 5.039032936096191 16.377004623413086 2.518890380859375
    endloop
  endfacet
  facet normal 0.9289744 0.365657 0.057459526
    outer loop
      vertex 8.205277442932129 14.249999046325684 4.606377124786377
      vertex 7.677082538604736 15.745361328125 3.6298608779907227
      vertex 7.575054168701172 15.669471740722656 5.762341022491455
    endloop
  endfacet
  facet normal 0.92724836 -0.36802137 0.06907099
    outer loop
      vertex 7.680548191070557 12.752059936523438 3.6693809032440186
      vertex 8.205277442932129 14.249999046325684 4.606377124786377
      vertex 7.556475639343262 12.844346046447754 5.826716899871826
    endloop
  endfacet
  facet normal 0.50754017 -0.67608875 -0.53414136
    outer loop
      vertex 6.875964164733887 13.350515365600586 1.5336897373199463
      vertex 6.9329938888549805 12.587416648864746 2.5537705421447754
      vertex 6.103254795074463 12.770442008972168 1.5336897373199463
    endloop
  endfacet
  facet normal 0.03957852 -0.9978603 -0.052041885
    outer loop
      vertex 4.935225963592529 11.771202087402344 3.8077263832092285
      vertex 6.373083114624023 11.8560152053833 3.2750134468078613
      vertex 6.399568557739258 11.766258239746094 5.016171932220459
    endloop
  endfacet
  facet normal -0.749963 -0.5268114 -0.40003163
    outer loop
      vertex 4.359595775604248 12.490324974060059 2.849801778793335
      vertex 3.633976459503174 12.738067626953125 3.8839049339294434
      vertex 4.457371711730957 13.350515365600586 1.5336897373199463
    endloop
  endfacet
  facet normal -0.47515407 0 -0.8799026
    outer loop
      vertex 4.457371711730957 13.350515365600586 1.5336897373199463
      vertex 4.457371711730957 15.149482727050781 1.5336897373199463
      vertex 5.673399925231934 14.283506393432617 0.877025306224823
    endloop
  endfacet
  facet normal 0.6894074 0 -0.7243738
    outer loop
      vertex 6.875964164733887 15.149482727050781 1.5336897373199463
      vertex 7.747683525085449 14.249999046325684 2.363330125808716
      vertex 6.875964164733887 13.350515365600586 1.5336897373199463
    endloop
  endfacet
  facet normal 0.47925723 0 -0.87767446
    outer loop
      vertex 6.875964164733887 15.149482727050781 1.5336897373199463
      vertex 6.875964164733887 13.350515365600586 1.5336897373199463
      vertex 5.673399925231934 14.283506393432617 0.877025306224823
    endloop
  endfacet
  facet normal -0.6894074 -0 -0.7243738
    outer loop
      vertex 4.457371711730957 15.149482727050781 1.5336897373199463
      vertex 4.457371711730957 13.350515365600586 1.5336897373199463
      vertex 3.5856523513793945 14.249999046325684 2.363330125808716
    endloop
  endfacet
  facet normal -0.25161043 0.33516693 -0.90794015
    outer loop
      vertex 4.457371711730957 15.149482727050781 1.5336897373199463
      vertex 5.230081081390381 15.729557037353516 1.5336897373199463
      vertex 5.673399925231934 14.283506393432617 0.877025306224823
    endloop
  endfacet
  facet normal 0.2527939 0.33674344 -0.9070276
    outer loop
      vertex 5.673399925231934 14.283506393432617 0.877025306224823
      vertex 6.103254795074463 15.729557037353516 1.5336897373199463
      vertex 6.875964164733887 15.149482727050781 1.5336897373199463
    endloop
  endfacet
  facet normal 0.24512799 -0.32653233 -0.9128466
    outer loop
      vertex 6.875964164733887 13.350515365600586 1.5336897373199463
      vertex 6.103254795074463 12.770442008972168 1.5336897373199463
      vertex 5.673399925231934 14.283506393432617 0.877025306224823
    endloop
  endfacet
  facet normal -0.04885907 -0.95748436 -0.2843175
    outer loop
      vertex 6.373083114624023 11.8560152053833 3.2750134468078613
      vertex 4.935225963592529 11.771202087402344 3.8077263832092285
      vertex 5.6128387451171875 12.09997844696045 2.584074020385742
    endloop
  endfacet
  facet normal 0 -0.8429202 -0.5380386
    outer loop
      vertex 5.6128387451171875 12.09997844696045 2.584074020385742
      vertex 5.230081081390381 12.770442008972168 1.5336897373199463
      vertex 6.103254795074463 12.770442008972168 1.5336897373199463
    endloop
  endfacet
  facet normal 0.65346116 -0.7537327 0.069824845
    outer loop
      vertex 6.399568557739258 11.766258239746094 5.016171932220459
      vertex 7.680548191070557 12.752059936523438 3.6693809032440186
      vertex 7.556475639343262 12.844346046447754 5.826716899871826
    endloop
  endfacet
  facet normal 0.4095493 -0.78003794 -0.47308585
    outer loop
      vertex 6.9329938888549805 12.587416648864746 2.5537705421447754
      vertex 6.373083114624023 11.8560152053833 3.2750134468078613
      vertex 6.103254795074463 12.770442008972168 1.5336897373199463
    endloop
  endfacet
  facet normal 0.64943707 0.758196 0.058054555
    outer loop
      vertex 7.677082538604736 15.745361328125 3.6298608779907227
      vertex 6.3994221687316895 16.733245849609375 5.020791530609131
      vertex 7.575054168701172 15.669471740722656 5.762341022491455
    endloop
  endfacet
  facet normal 0 0.9175112 0.39770994
    outer loop
      vertex 6.103254795074463 15.729557037353516 7.336287498474121
      vertex 6.3994221687316895 16.733245849609375 5.020791530609131
      vertex 5.230081081390381 15.729557037353516 7.336287498474121
    endloop
  endfacet
  facet normal -0.5221848 -0.6955967 -0.49342507
    outer loop
      vertex 4.359595775604248 12.490324974060059 2.849801778793335
      vertex 4.457371711730957 13.350515365600586 1.5336897373199463
      vertex 5.230081081390381 12.770442008972168 1.5336897373199463
    endloop
  endfacet
  facet normal -0.6389516 0.76898366 -0.020123634
    outer loop
      vertex 4.192470073699951 16.128271102905273 3.480076313018799
      vertex 3.6987924575805664 15.713720321655273 3.3137714862823486
      vertex 3.66510272026062 15.738779067993164 5.341033458709717
    endloop
  endfacet
  facet normal 0.59902686 -0.7458528 -0.2913252
    outer loop
      vertex 6.373083114624023 11.8560152053833 3.2750134468078613
      vertex 6.9329938888549805 12.587416648864746 2.5537705421447754
      vertex 7.680548191070557 12.752059936523438 3.6693809032440186
    endloop
  endfacet
  facet normal 0.15725641 -0.86409473 -0.47813258
    outer loop
      vertex 6.373083114624023 11.8560152053833 3.2750134468078613
      vertex 5.6128387451171875 12.09997844696045 2.584074020385742
      vertex 6.103254795074463 12.770442008972168 1.5336897373199463
    endloop
  endfacet
  facet normal 0.8137434 0.3975419 -0.42400715
    outer loop
      vertex 7.677082538604736 15.745361328125 3.6298608779907227
      vertex 7.747683525085449 14.249999046325684 2.363330125808716
      vertex 6.875964164733887 15.149482727050781 1.5336897373199463
    endloop
  endfacet
  facet normal -0.5892894 -0.77514344 -0.22779517
    outer loop
      vertex 3.633976459503174 12.738067626953125 3.8839049339294434
      vertex 4.359595775604248 12.490324974060059 2.849801778793335
      vertex 4.935225963592529 11.771202087402344 3.8077263832092285
    endloop
  endfacet
  facet normal -0.8144623 -0.42417845 -0.39588356
    outer loop
      vertex 3.633976459503174 12.738067626953125 3.8839049339294434
      vertex 3.5856523513793945 14.249999046325684 2.363330125808716
      vertex 4.457371711730957 13.350515365600586 1.5336897373199463
    endloop
  endfacet
  facet normal 0.9572954 -0.21318063 -0.19529352
    outer loop
      vertex 7.680548191070557 12.752059936523438 3.6693809032440186
      vertex 7.747683525085449 14.249999046325684 2.363330125808716
      vertex 8.205277442932129 14.249999046325684 4.606377124786377
    endloop
  endfacet
  facet normal 0.74663186 -0.51198685 -0.42474744
    outer loop
      vertex 7.680548191070557 12.752059936523438 3.6693809032440186
      vertex 6.9329938888549805 12.587416648864746 2.5537705421447754
      vertex 6.875964164733887 13.350515365600586 1.5336897373199463
    endloop
  endfacet
  facet normal 0.5285246 -0.7040418 0.47432786
    outer loop
      vertex 6.103254795074463 12.770442008972168 7.336287498474121
      vertex 7.556475639343262 12.844346046447754 5.826716899871826
      vertex 6.875964164733887 13.350515365600586 7.336287498474121
    endloop
  endfacet
  facet normal 0.94515073 0.2342859 0.22759667
    outer loop
      vertex 7.575054168701172 15.669471740722656 5.762341022491455
      vertex 7.747683525085449 14.249999046325684 6.50664758682251
      vertex 8.205277442932129 14.249999046325684 4.606377124786377
    endloop
  endfacet
  facet normal 0.80853546 -0.34171247 0.47906473
    outer loop
      vertex 7.556475639343262 12.844346046447754 5.826716899871826
      vertex 7.747683525085449 14.249999046325684 6.50664758682251
      vertex 6.875964164733887 13.350515365600586 7.336287498474121
    endloop
  endfacet
  facet normal -0.9558001 0.20849226 -0.20730919
    outer loop
      vertex 3.6987924575805664 15.713720321655273 3.3137714862823486
      vertex 3.5856523513793945 14.249999046325684 2.363330125808716
      vertex 3.118461847305298 14.249999046325684 4.517314434051514
    endloop
  endfacet
  facet normal -0.48325524 0.753989 -0.44493255
    outer loop
      vertex 3.6987924575805664 15.713720321655273 3.3137714862823486
      vertex 4.192470073699951 16.128271102905273 3.480076313018799
      vertex 4.457371711730957 15.149482727050781 1.5336897373199463
    endloop
  endfacet
  facet normal 0.5348974 0.8384707 -0.10417127
    outer loop
      vertex 7.677082538604736 15.745361328125 3.6298608779907227
      vertex 6.333981513977051 16.511472702026367 2.899723768234253
      vertex 6.3994221687316895 16.733245849609375 5.020791530609131
    endloop
  endfacet
  facet normal 0.06098897 0.9960465 -0.064588726
    outer loop
      vertex 5.768213748931885 16.661998748779297 3.3260347843170166
      vertex 4.917221546173096 16.789812088012695 4.493527889251709
      vertex 6.3994221687316895 16.733245849609375 5.020791530609131
    endloop
  endfacet
  facet normal 0 0.8356938 -0.54919565
    outer loop
      vertex 5.039032936096191 16.377004623413086 2.518890380859375
      vertex 6.103254795074463 15.729557037353516 1.5336897373199463
      vertex 5.230081081390381 15.729557037353516 1.5336897373199463
    endloop
  endfacet
  facet normal -0.80597126 -0.32437423 0.49516836
    outer loop
      vertex 3.5856523513793945 14.249999046325684 6.50664758682251
      vertex 3.8289573192596436 12.883095741271973 6.007238864898682
      vertex 4.457371711730957 13.350515365600586 7.336287498474121
    endloop
  endfacet
  facet normal 0.46197438 0.7906507 0.4018098
    outer loop
      vertex 6.103254795074463 15.729557037353516 7.336287498474121
      vertex 7.575054168701172 15.669471740722656 5.762341022491455
      vertex 6.3994221687316895 16.733245849609375 5.020791530609131
    endloop
  endfacet
  facet normal -0.5052102 0.6729839 -0.5402364
    outer loop
      vertex 4.457371711730957 15.149482727050781 1.5336897373199463
      vertex 5.039032936096191 16.377004623413086 2.518890380859375
      vertex 5.230081081390381 15.729557037353516 1.5336897373199463
    endloop
  endfacet
  facet normal -0.5226696 -0.69624245 0.4919989
    outer loop
      vertex 3.8289573192596436 12.883095741271973 6.007238864898682
      vertex 5.230081081390381 12.770442008972168 7.336287498474121
      vertex 4.457371711730957 13.350515365600586 7.336287498474121
    endloop
  endfacet
  facet normal -0.925838 -0.36164325 0.10971855
    outer loop
      vertex 3.8289573192596436 12.883095741271973 6.007238864898682
      vertex 3.118461847305298 14.249999046325684 4.517314434051514
      vertex 3.633976459503174 12.738067626953125 3.8839049339294434
    endloop
  endfacet
  facet normal -0.12752624 0.8699279 -0.4764058
    outer loop
      vertex 5.768213748931885 16.661998748779297 3.3260347843170166
      vertex 6.333981513977051 16.511472702026367 2.899723768234253
      vertex 6.103254795074463 15.729557037353516 1.5336897373199463
    endloop
  endfacet
  facet normal 0.524003 0.69801754 -0.48804957
    outer loop
      vertex 6.333981513977051 16.511472702026367 2.899723768234253
      vertex 6.875964164733887 15.149482727050781 1.5336897373199463
      vertex 6.103254795074463 15.729557037353516 1.5336897373199463
    endloop
  endfacet
  facet normal -0.5423774 0.7224938 0.42875332
    outer loop
      vertex 5.230081081390381 15.729557037353516 7.336287498474121
      vertex 3.66510272026062 15.738779067993164 5.341033458709717
      vertex 4.457371711730957 15.149482727050781 7.336287498474121
    endloop
  endfacet
  facet normal -0.09144701 0.929691 0.3568081
    outer loop
      vertex 5.230081081390381 15.729557037353516 7.336287498474121
      vertex 6.3994221687316895 16.733245849609375 5.020791530609131
      vertex 4.917221546173096 16.789812088012695 4.493527889251709
    endloop
  endfacet
  facet normal 0.17897795 0.9779326 -0.107771955
    outer loop
      vertex 6.333981513977051 16.511472702026367 2.899723768234253
      vertex 5.768213748931885 16.661998748779297 3.3260347843170166
      vertex 6.3994221687316895 16.733245849609375 5.020791530609131
    endloop
  endfacet
  facet normal 0.6114963 0.6682634 -0.42367
    outer loop
      vertex 6.333981513977051 16.511472702026367 2.899723768234253
      vertex 7.677082538604736 15.745361328125 3.6298608779907227
      vertex 6.875964164733887 15.149482727050781 1.5336897373199463
    endloop
  endfacet
  facet normal -0.50494105 -0.7233118 0.47101444
    outer loop
      vertex 3.8289573192596436 12.883095741271973 6.007238864898682
      vertex 4.9746503829956055 11.904808044433594 5.733150482177734
      vertex 5.230081081390381 12.770442008972168 7.336287498474121
    endloop
  endfacet
  facet normal -0.9429162 -0.24874192 0.22144179
    outer loop
      vertex 3.8289573192596436 12.883095741271973 6.007238864898682
      vertex 3.5856523513793945 14.249999046325684 6.50664758682251
      vertex 3.118461847305298 14.249999046325684 4.517314434051514
    endloop
  endfacet
  facet normal -0.48518175 0.8494345 -0.20750825
    outer loop
      vertex 5.039032936096191 16.377004623413086 2.518890380859375
      vertex 4.192470073699951 16.128271102905273 3.480076313018799
      vertex 4.917221546173096 16.789812088012695 4.493527889251709
    endloop
  endfacet
  facet normal 0.1362902 0.88905543 -0.4370417
    outer loop
      vertex 5.039032936096191 16.377004623413086 2.518890380859375
      vertex 5.768213748931885 16.661998748779297 3.3260347843170166
      vertex 6.103254795074463 15.729557037353516 1.5336897373199463
    endloop
  endfacet
  facet normal -0.237873 0.3168677 0.91815645
    outer loop
      vertex 15.896749496459961 15.729557037353516 7.336287498474121
      vertex 15.124039649963379 15.149482727050781 7.336287498474121
      vertex 16.364498138427734 14.196091651916504 7.98668909072876
    endloop
  endfacet
  facet normal 0.24294767 0.3236272 0.9144626
    outer loop
      vertex 16.364498138427734 14.196091651916504 7.98668909072876
      vertex 17.542631149291992 15.149482727050781 7.336287498474121
      vertex 16.769922256469727 15.729557037353516 7.336287498474121
    endloop
  endfacet
  facet normal 0.25541422 -0.34023428 0.9049885
    outer loop
      vertex 16.364498138427734 14.196091651916504 7.98668909072876
      vertex 16.769922256469727 12.770442008972168 7.336287498474121
      vertex 17.542631149291992 13.350515365600586 7.336287498474121
    endloop
  endfacet
  facet normal -0.24986629 -0.33284435 0.90927523
    outer loop
      vertex 15.124039649963379 13.350515365600586 7.336287498474121
      vertex 15.896749496459961 12.770442008972168 7.336287498474121
      vertex 16.364498138427734 14.196091651916504 7.98668909072876
    endloop
  endfacet
  facet normal -0.68940717 0 0.724374
    outer loop
      vertex 15.124039649963379 15.149482727050781 7.336287498474121
      vertex 14.252320289611816 14.249999046325684 6.50664758682251
      vertex 15.124039649963379 13.350515365600586 7.336287498474121
    endloop
  endfacet
  facet normal 0.48330358 -0 0.8754528
    outer loop
      vertex 17.542631149291992 13.350515365600586 7.336287498474121
      vertex 17.542631149291992 15.149482727050781 7.336287498474121
      vertex 16.364498138427734 14.196091651916504 7.98668909072876
    endloop
  endfacet
  facet normal 0.68940717 -0 0.724374
    outer loop
      vertex 17.542631149291992 13.350515365600586 7.336287498474121
      vertex 18.414350509643555 14.249999046325684 6.50664758682251
      vertex 17.542631149291992 15.149482727050781 7.336287498474121
    endloop
  endfacet
  facet normal -0.46436417 0 0.8856443
    outer loop
      vertex 15.124039649963379 15.149482727050781 7.336287498474121
      vertex 15.124039649963379 13.350515365600586 7.336287498474121
      vertex 16.364498138427734 14.196091651916504 7.98668909072876
    endloop
  endfacet
  facet normal -0.6133617 0.6699685 0.41824585
    outer loop
      vertex 15.124039649963379 15.149482727050781 7.336287498474121
      vertex 15.658307075500488 16.53761863708496 5.896205902099609
      vertex 14.319127082824707 15.748184204101562 5.196843147277832
    endloop
  endfacet
  facet normal 0.6039246 -0.67039883 0.43109223
    outer loop
      vertex 17.542631149291992 13.350515365600586 7.336287498474121
      vertex 16.998170852661133 11.99692440032959 5.994039058685303
      vertex 18.33841323852539 12.758606910705566 5.300975799560547
    endloop
  endfacet
  facet normal -0.5356197 -0.7134935 0.4517063
    outer loop
      vertex 15.124039649963379 13.350515365600586 7.336287498474121
      vertex 14.35580825805664 12.779098510742188 5.522759437561035
      vertex 15.896749496459961 12.770442008972168 7.336287498474121
    endloop
  endfacet
  facet normal -0.9569283 -0.20490368 0.20567618
    outer loop
      vertex 14.252320289611816 14.249999046325684 6.50664758682251
      vertex 13.786540985107422 14.249999046325684 4.339564323425293
      vertex 14.35580825805664 12.779098510742188 5.522759437561035
    endloop
  endfacet
  facet normal -0.08517207 0.99216783 0.091371305
    outer loop
      vertex 15.658307075500488 16.53761863708496 5.896205902099609
      vertex 17.080917358398438 16.78349494934082 4.552415370941162
      vertex 15.602471351623535 16.726839065551758 3.789482593536377
    endloop
  endfacet
  facet normal -0.19415735 -0.91040444 0.3653309
    outer loop
      vertex 16.998170852661133 11.99692440032959 5.994039058685303
      vertex 15.896749496459961 12.770442008972168 7.336287498474121
      vertex 15.585407257080078 11.715331077575684 4.541486740112305
    endloop
  endfacet
  facet normal -0.81054664 0.3579987 -0.46352035
    outer loop
      vertex 14.252320289611816 14.249999046325684 2.363330125808716
      vertex 14.381033897399902 15.702136993408203 3.2598066329956055
      vertex 15.124039649963379 15.149482727050781 1.5336897373199463
    endloop
  endfacet
  facet normal -0.5413474 0.7916699 -0.28319925
    outer loop
      vertex 15.602471351623535 16.726839065551758 3.789482593536377
      vertex 15.164756774902344 15.98316764831543 2.547294855117798
      vertex 14.381033897399902 15.702136993408203 3.2598066329956055
    endloop
  endfacet
  facet normal -0.12961845 0.9005269 -0.41503063
    outer loop
      vertex 15.896749496459961 15.729557037353516 1.5336897373199463
      vertex 15.602471351623535 16.726839065551758 3.789482593536377
      vertex 16.995092391967773 16.49264144897461 2.8463940620422363
    endloop
  endfacet
  facet normal 0.5891537 0.7910969 -0.1645099
    outer loop
      vertex 17.49433135986328 16.12361717224121 2.859733819961548
      vertex 16.995092391967773 16.49264144897461 2.8463940620422363
      vertex 17.080917358398438 16.78349494934082 4.552415370941162
    endloop
  endfacet
  facet normal 0.9542018 0.21715446 -0.2057736
    outer loop
      vertex 18.880647659301758 14.249999046325684 4.5256171226501465
      vertex 18.414350509643555 14.249999046325684 2.363330125808716
      vertex 18.341102600097656 15.743391990661621 3.5996580123901367
    endloop
  endfacet
  facet normal 0.8110101 -0.3622836 -0.45936173
    outer loop
      vertex 18.414350509643555 14.249999046325684 2.363330125808716
      vertex 18.304983139038086 12.783473014831543 3.3268415927886963
      vertex 17.542631149291992 13.350515365600586 1.5336897373199463
    endloop
  endfacet
  facet normal 0.53377515 -0.8383248 0.110885665
    outer loop
      vertex 17.06734275817871 11.762504577636719 3.8887877464294434
      vertex 18.33841323852539 12.758606910705566 5.300975799560547
      vertex 16.998170852661133 11.99692440032959 5.994039058685303
    endloop
  endfacet
  facet normal -0.53553027 -0.8251767 -0.17969616
    outer loop
      vertex 14.346878051757812 12.772456169128418 3.3781611919403076
      vertex 15.682455062866211 12.044217109680176 2.7419984340667725
      vertex 15.585407257080078 11.715331077575684 4.541486740112305
    endloop
  endfacet
  facet normal -0.9506276 -0.21472536 -0.22405376
    outer loop
      vertex 13.786540985107422 14.249999046325684 4.339564323425293
      vertex 14.252320289611816 14.249999046325684 2.363330125808716
      vertex 14.346878051757812 12.772456169128418 3.3781611919403076
    endloop
  endfacet
  facet normal 0 0.40932313 -0.9123895
    outer loop
      vertex 15.896749496459961 15.729557037353516 1.5336897373199463
      vertex 16.769922256469727 15.729557037353516 1.5336897373199463
      vertex 16.326507568359375 14.253872871398926 0.8716570734977722
    endloop
  endfacet
  facet normal -0 -0.40754136 -0.9131867
    outer loop
      vertex 16.769922256469727 12.770442008972168 1.5336897373199463
      vertex 15.896749496459961 12.770442008972168 1.5336897373199463
      vertex 16.326507568359375 14.253872871398926 0.8716570734977722
    endloop
  endfacet
  facet normal -0.25015357 -0.33322704 -0.90905607
    outer loop
      vertex 15.896749496459961 12.770442008972168 1.5336897373199463
      vertex 15.124039649963379 13.350515365600586 1.5336897373199463
      vertex 16.326507568359375 14.253872871398926 0.8716570734977722
    endloop
  endfacet
  facet normal 0 0.39046872 0.9206162
    outer loop
      vertex 16.364498138427734 14.196091651916504 7.98668909072876
      vertex 16.769922256469727 15.729557037353516 7.336287498474121
      vertex 15.896749496459961 15.729557037353516 7.336287498474121
    endloop
  endfacet
  facet normal 0 -0.4150608 0.9097937
    outer loop
      vertex 16.364498138427734 14.196091651916504 7.98668909072876
      vertex 15.896749496459961 12.770442008972168 7.336287498474121
      vertex 16.769922256469727 12.770442008972168 7.336287498474121
    endloop
  endfacet
  facet normal -0.95335305 0.22165453 0.20490775
    outer loop
      vertex 14.319127082824707 15.748184204101562 5.196843147277832
      vertex 13.786540985107422 14.249999046325684 4.339564323425293
      vertex 14.252320289611816 14.249999046325684 6.50664758682251
    endloop
  endfacet
  facet normal -0.54005104 0.8368623 0.0894781
    outer loop
      vertex 15.658307075500488 16.53761863708496 5.896205902099609
      vertex 15.602471351623535 16.726839065551758 3.789482593536377
      vertex 14.319127082824707 15.748184204101562 5.196843147277832
    endloop
  endfacet
  facet normal 0.53115255 0.70754087 0.46611464
    outer loop
      vertex 17.542631149291992 15.149482727050781 7.336287498474121
      vertex 18.251760482788086 15.6769380569458 5.727558612823486
      vertex 16.769922256469727 15.729557037353516 7.336287498474121
    endloop
  endfacet
  facet normal 0.8095685 0.34968242 0.4715093
    outer loop
      vertex 18.414350509643555 14.249999046325684 6.50664758682251
      vertex 18.251760482788086 15.6769380569458 5.727558612823486
      vertex 17.542631149291992 15.149482727050781 7.336287498474121
    endloop
  endfacet
  facet normal 0.9476295 -0.22857197 0.2230541
    outer loop
      vertex 18.33841323852539 12.758606910705566 5.300975799560547
      vertex 18.880647659301758 14.249999046325684 4.5256171226501465
      vertex 18.414350509643555 14.249999046325684 6.50664758682251
    endloop
  endfacet
  facet normal -0.8111393 -0.36352664 0.45815003
    outer loop
      vertex 14.252320289611816 14.249999046325684 6.50664758682251
      vertex 14.35580825805664 12.779098510742188 5.522759437561035
      vertex 15.124039649963379 13.350515365600586 7.336287498474121
    endloop
  endfacet
  facet normal -0.9344301 0.35408318 -0.03828123
    outer loop
      vertex 14.381033897399902 15.702136993408203 3.2598066329956055
      vertex 13.786540985107422 14.249999046325684 4.339564323425293
      vertex 14.319127082824707 15.748184204101562 5.196843147277832
    endloop
  endfacet
  facet normal -0.5071203 0.6755287 -0.5352475
    outer loop
      vertex 15.124039649963379 15.149482727050781 1.5336897373199463
      vertex 15.164756774902344 15.98316764831543 2.547294855117798
      vertex 15.896749496459961 15.729557037353516 1.5336897373199463
    endloop
  endfacet
  facet normal 0.6554011 0.6198822 -0.43150365
    outer loop
      vertex 17.49433135986328 16.12361717224121 2.859733819961548
      vertex 18.341102600097656 15.743391990661621 3.5996580123901367
      vertex 17.542631149291992 15.149482727050781 1.5336897373199463
    endloop
  endfacet
  facet normal 0.92889667 0.3668854 0.050458454
    outer loop
      vertex 18.880647659301758 14.249999046325684 4.5256171226501465
      vertex 18.341102600097656 15.743391990661621 3.5996580123901367
      vertex 18.251760482788086 15.6769380569458 5.727558612823486
    endloop
  endfacet
  facet normal 0.9361877 -0.3509154 -0.020273568
    outer loop
      vertex 18.304983139038086 12.783473014831543 3.3268415927886963
      vertex 18.880647659301758 14.249999046325684 4.5256171226501465
      vertex 18.33841323852539 12.758606910705566 5.300975799560547
    endloop
  endfacet
  facet normal 0.5117148 -0.6816493 -0.5229743
    outer loop
      vertex 17.542631149291992 13.350515365600586 1.5336897373199463
      vertex 17.531192779541016 12.506115913391113 2.6230952739715576
      vertex 16.769922256469727 12.770442008972168 1.5336897373199463
    endloop
  endfacet
  facet normal 0.081264384 -0.99027336 0.11293707
    outer loop
      vertex 15.585407257080078 11.715331077575684 4.541486740112305
      vertex 17.06734275817871 11.762504577636719 3.8887877464294434
      vertex 16.998170852661133 11.99692440032959 5.994039058685303
    endloop
  endfacet
  facet normal -0.9339269 -0.3574292 0.00499596
    outer loop
      vertex 13.786540985107422 14.249999046325684 4.339564323425293
      vertex 14.346878051757812 12.772456169128418 3.3781611919403076
      vertex 14.35580825805664 12.779098510742188 5.522759437561035
    endloop
  endfacet
  facet normal -0.4822964 0 -0.8760081
    outer loop
      vertex 15.124039649963379 13.350515365600586 1.5336897373199463
      vertex 15.124039649963379 15.149482727050781 1.5336897373199463
      vertex 16.326507568359375 14.253872871398926 0.8716570734977722
    endloop
  endfacet
  facet normal 0.6894074 0 -0.7243738
    outer loop
      vertex 17.542631149291992 15.149482727050781 1.5336897373199463
      vertex 18.414350509643555 14.249999046325684 2.363330125808716
      vertex 17.542631149291992 13.350515365600586 1.5336897373199463
    endloop
  endfacet
  facet normal 0.47812423 0 -0.8782922
    outer loop
      vertex 17.542631149291992 15.149482727050781 1.5336897373199463
      vertex 17.542631149291992 13.350515365600586 1.5336897373199463
      vertex 16.326507568359375 14.253872871398926 0.8716570734977722
    endloop
  endfacet
  facet normal -0.6894074 -0 -0.7243738
    outer loop
      vertex 15.124039649963379 15.149482727050781 1.5336897373199463
      vertex 15.124039649963379 13.350515365600586 1.5336897373199463
      vertex 14.252320289611816 14.249999046325684 2.363330125808716
    endloop
  endfacet
  facet normal -0.2510434 0.33441186 -0.90837544
    outer loop
      vertex 15.124039649963379 15.149482727050781 1.5336897373199463
      vertex 15.896749496459961 15.729557037353516 1.5336897373199463
      vertex 16.326507568359375 14.253872871398926 0.8716570734977722
    endloop
  endfacet
  facet normal 0.24986768 0.33284524 -0.9092745
    outer loop
      vertex 16.326507568359375 14.253872871398926 0.8716570734977722
      vertex 16.769922256469727 15.729557037353516 1.5336897373199463
      vertex 17.542631149291992 15.149482727050781 1.5336897373199463
    endloop
  endfacet
  facet normal 0.24898528 -0.33167034 -0.90994567
    outer loop
      vertex 17.542631149291992 13.350515365600586 1.5336897373199463
      vertex 16.769922256469727 12.770442008972168 1.5336897373199463
      vertex 16.326507568359375 14.253872871398926 0.8716570734977722
    endloop
  endfacet
  facet normal -0.04603019 -0.9833877 -0.17558418
    outer loop
      vertex 17.06734275817871 11.762504577636719 3.8887877464294434
      vertex 15.585407257080078 11.715331077575684 4.541486740112305
      vertex 16.219884872436523 11.968789100646973 2.955622673034668
    endloop
  endfacet
  facet normal 0 -0.8710998 -0.49110594
    outer loop
      vertex 16.219884872436523 11.968789100646973 2.955622673034668
      vertex 15.896749496459961 12.770442008972168 1.5336897373199463
      vertex 16.769922256469727 12.770442008972168 1.5336897373199463
    endloop
  endfacet
  facet normal 0.6306764 -0.7757764 -0.020451553
    outer loop
      vertex 17.06734275817871 11.762504577636719 3.8887877464294434
      vertex 18.304983139038086 12.783473014831543 3.3268415927886963
      vertex 18.33841323852539 12.758606910705566 5.300975799560547
    endloop
  endfacet
  facet normal 0.2812915 -0.8688597 -0.40737927
    outer loop
      vertex 17.531192779541016 12.506115913391113 2.6230952739715576
      vertex 17.06734275817871 11.762504577636719 3.8887877464294434
      vertex 16.769922256469727 12.770442008972168 1.5336897373199463
    endloop
  endfacet
  facet normal 0.6584101 0.7509231 0.051095217
    outer loop
      vertex 18.341102600097656 15.743391990661621 3.5996580123901367
      vertex 17.080917358398438 16.78349494934082 4.552415370941162
      vertex 18.251760482788086 15.6769380569458 5.727558612823486
    endloop
  endfacet
  facet normal 0.5225586 0.696093 -0.49232808
    outer loop
      vertex 17.49433135986328 16.12361717224121 2.859733819961548
      vertex 17.542631149291992 15.149482727050781 1.5336897373199463
      vertex 16.769922256469727 15.729557037353516 1.5336897373199463
    endloop
  endfacet
  facet normal -0.52645445 0.70128345 0.48067367
    outer loop
      vertex 15.658307075500488 16.53761863708496 5.896205902099609
      vertex 15.124039649963379 15.149482727050781 7.336287498474121
      vertex 15.896749496459961 15.729557037353516 7.336287498474121
    endloop
  endfacet
  facet normal 0.18826257 0.9113504 0.36605686
    outer loop
      vertex 15.658307075500488 16.53761863708496 5.896205902099609
      vertex 16.769922256469727 15.729557037353516 7.336287498474121
      vertex 17.080917358398438 16.78349494934082 4.552415370941162
    endloop
  endfacet
  facet normal -0.65194577 -0.7582487 0.0050632125
    outer loop
      vertex 14.346878051757812 12.772456169128418 3.3781611919403076
      vertex 15.585407257080078 11.715331077575684 4.541486740112305
      vertex 14.35580825805664 12.779098510742188 5.522759437561035
    endloop
  endfacet
  facet normal -0.6323549 0.77371645 -0.038602557
    outer loop
      vertex 15.602471351623535 16.726839065551758 3.789482593536377
      vertex 14.381033897399902 15.702136993408203 3.2598066329956055
      vertex 14.319127082824707 15.748184204101562 5.196843147277832
    endloop
  endfacet
  facet normal -0.28017038 0.86392736 -0.41849023
    outer loop
      vertex 15.602471351623535 16.726839065551758 3.789482593536377
      vertex 15.896749496459961 15.729557037353516 1.5336897373199463
      vertex 15.164756774902344 15.98316764831543 2.547294855117798
    endloop
  endfacet
  facet normal 0.53517723 -0.79925835 -0.27344367
    outer loop
      vertex 17.06734275817871 11.762504577636719 3.8887877464294434
      vertex 17.531192779541016 12.506115913391113 2.6230952739715576
      vertex 18.304983139038086 12.783473014831543 3.3268415927886963
    endloop
  endfacet
  facet normal 0.2336535 -0.88287234 -0.40736032
    outer loop
      vertex 17.06734275817871 11.762504577636719 3.8887877464294434
      vertex 16.219884872436523 11.968789100646973 2.955622673034668
      vertex 16.769922256469727 12.770442008972168 1.5336897373199463
    endloop
  endfacet
  facet normal 0.535518 0.82287383 -0.18999766
    outer loop
      vertex 18.341102600097656 15.743391990661621 3.5996580123901367
      vertex 17.49433135986328 16.12361717224121 2.859733819961548
      vertex 17.080917358398438 16.78349494934082 4.552415370941162
    endloop
  endfacet
  facet normal 0.8135566 0.39396867 -0.42768487
    outer loop
      vertex 18.341102600097656 15.743391990661621 3.5996580123901367
      vertex 18.414350509643555 14.249999046325684 2.363330125808716
      vertex 17.542631149291992 15.149482727050781 1.5336897373199463
    endloop
  endfacet
  facet normal -0.9489991 0.22219922 -0.22366992
    outer loop
      vertex 14.381033897399902 15.702136993408203 3.2598066329956055
      vertex 14.252320289611816 14.249999046325684 2.363330125808716
      vertex 13.786540985107422 14.249999046325684 4.339564323425293
    endloop
  endfacet
  facet normal -0.6439879 0.6033441 -0.470378
    outer loop
      vertex 14.381033897399902 15.702136993408203 3.2598066329956055
      vertex 15.164756774902344 15.98316764831543 2.547294855117798
      vertex 15.124039649963379 15.149482727050781 1.5336897373199463
    endloop
  endfacet
  facet normal 0.95639163 -0.20682774 -0.20624584
    outer loop
      vertex 18.304983139038086 12.783473014831543 3.3268415927886963
      vertex 18.414350509643555 14.249999046325684 2.363330125808716
      vertex 18.880647659301758 14.249999046325684 4.5256171226501465
    endloop
  endfacet
  facet normal 0.64183366 -0.6093437 -0.46556395
    outer loop
      vertex 18.304983139038086 12.783473014831543 3.3268415927886963
      vertex 17.531192779541016 12.506115913391113 2.6230952739715576
      vertex 17.542631149291992 13.350515365600586 1.5336897373199463
    endloop
  endfacet
  facet normal 0.5231543 -0.69688773 0.49056804
    outer loop
      vertex 16.998170852661133 11.99692440032959 5.994039058685303
      vertex 17.542631149291992 13.350515365600586 7.336287498474121
      vertex 16.769922256469727 12.770442008972168 7.336287498474121
    endloop
  endfacet
  facet normal 0.94737154 0.22969787 0.22299337
    outer loop
      vertex 18.251760482788086 15.6769380569458 5.727558612823486
      vertex 18.414350509643555 14.249999046325684 6.50664758682251
      vertex 18.880647659301758 14.249999046325684 4.5256171226501465
    endloop
  endfacet
  facet normal 0.8133396 -0.39024317 0.43149623
    outer loop
      vertex 18.33841323852539 12.758606910705566 5.300975799560547
      vertex 18.414350509643555 14.249999046325684 6.50664758682251
      vertex 17.542631149291992 13.350515365600586 7.336287498474121
    endloop
  endfacet
  facet normal -0.81396776 0.40249783 0.41886994
    outer loop
      vertex 14.319127082824707 15.748184204101562 5.196843147277832
      vertex 14.252320289611816 14.249999046325684 6.50664758682251
      vertex 15.124039649963379 15.149482727050781 7.336287498474121
    endloop
  endfacet
  facet normal -0.8113261 -0.3653634 -0.45635465
    outer loop
      vertex 14.346878051757812 12.772456169128418 3.3781611919403076
      vertex 14.252320289611816 14.249999046325684 2.363330125808716
      vertex 15.124039649963379 13.350515365600586 1.5336897373199463
    endloop
  endfacet
  facet normal 0 0.86454034 -0.5025635
    outer loop
      vertex 15.896749496459961 15.729557037353516 1.5336897373199463
      vertex 16.995092391967773 16.49264144897461 2.8463940620422363
      vertex 16.769922256469727 15.729557037353516 1.5336897373199463
    endloop
  endfacet
  facet normal 0.079225555 -0.8605521 -0.50316346
    outer loop
      vertex 16.219884872436523 11.968789100646973 2.955622673034668
      vertex 15.682455062866211 12.044217109680176 2.7419984340667725
      vertex 15.896749496459961 12.770442008972168 1.5336897373199463
    endloop
  endfacet
  facet normal -0.5177185 -0.6896476 -0.50631386
    outer loop
      vertex 15.682455062866211 12.044217109680176 2.7419984340667725
      vertex 15.124039649963379 13.350515365600586 1.5336897373199463
      vertex 15.896749496459961 12.770442008972168 1.5336897373199463
    endloop
  endfacet
  facet normal 0 -0.8664248 0.4993076
    outer loop
      vertex 15.896749496459961 12.770442008972168 7.336287498474121
      vertex 16.998170852661133 11.99692440032959 5.994039058685303
      vertex 16.769922256469727 12.770442008972168 7.336287498474121
    endloop
  endfacet
  facet normal -0.42890894 -0.8283032 0.36048698
    outer loop
      vertex 15.896749496459961 12.770442008972168 7.336287498474121
      vertex 14.35580825805664 12.779098510742188 5.522759437561035
      vertex 15.585407257080078 11.715331077575684 4.541486740112305
    endloop
  endfacet
  facet normal 0 0.87208855 0.48934814
    outer loop
      vertex 16.769922256469727 15.729557037353516 7.336287498474121
      vertex 15.658307075500488 16.53761863708496 5.896205902099609
      vertex 15.896749496459961 15.729557037353516 7.336287498474121
    endloop
  endfacet
  facet normal 0.4223181 0.83110255 0.36182314
    outer loop
      vertex 16.769922256469727 15.729557037353516 7.336287498474121
      vertex 18.251760482788086 15.6769380569458 5.727558612823486
      vertex 17.080917358398438 16.78349494934082 4.552415370941162
    endloop
  endfacet
  facet normal 0.050169643 0.98411393 -0.17030197
    outer loop
      vertex 16.995092391967773 16.49264144897461 2.8463940620422363
      vertex 15.602471351623535 16.726839065551758 3.789482593536377
      vertex 17.080917358398438 16.78349494934082 4.552415370941162
    endloop
  endfacet
  facet normal 0.5255941 0.69323015 -0.4931356
    outer loop
      vertex 16.995092391967773 16.49264144897461 2.8463940620422363
      vertex 17.49433135986328 16.12361717224121 2.859733819961548
      vertex 16.769922256469727 15.729557037353516 1.5336897373199463
    endloop
  endfacet
  facet normal -0.06502091 -0.9809977 -0.18280005
    outer loop
      vertex 15.682455062866211 12.044217109680176 2.7419984340667725
      vertex 16.219884872436523 11.968789100646973 2.955622673034668
      vertex 15.585407257080078 11.715331077575684 4.541486740112305
    endloop
  endfacet
  facet normal -0.5836107 -0.6716412 -0.45639533
    outer loop
      vertex 15.682455062866211 12.044217109680176 2.7419984340667725
      vertex 14.346878051757812 12.772456169128418 3.3781611919403076
      vertex 15.124039649963379 13.350515365600586 1.5336897373199463
    endloop
  endfacet
  facet normal -0.22240204 0.29626077 0.92885244
    outer loop
      vertex 5.230081081390381 37.22955322265625 7.336287498474121
      vertex 4.457371711730957 36.64948272705078 7.336287498474121
      vertex 5.698248386383057 35.59940719604492 7.968325138092041
    endloop
  endfacet
  facet normal 0.22708203 0.30249497 0.92570543
    outer loop
      vertex 5.698248386383057 35.59940719604492 7.968325138092041
      vertex 6.875964164733887 36.64948272705078 7.336287498474121
      vertex 6.103254795074463 37.22955322265625 7.336287498474121
    endloop
  endfacet
  facet normal 0.2615328 -0.34838444 0.9001272
    outer loop
      vertex 5.698248386383057 35.59940719604492 7.968325138092041
      vertex 6.103254795074463 34.27043914794922 7.336287498474121
      vertex 6.875964164733887 34.85051345825195 7.336287498474121
    endloop
  endfacet
  facet normal -0.25550577 -0.3403559 0.90491694
    outer loop
      vertex 4.457371711730957 34.85051345825195 7.336287498474121
      vertex 5.230081081390381 34.27043914794922 7.336287498474121
      vertex 5.698248386383057 35.59940719604492 7.968325138092041
    endloop
  endfacet
  facet normal -0.68940717 0 0.724374
    outer loop
      vertex 4.457371711730957 36.64948272705078 7.336287498474121
      vertex 3.5856523513793945 35.749996185302734 6.50664758682251
      vertex 4.457371711730957 34.85051345825195 7.336287498474121
    endloop
  endfacet
  facet normal 0.47287148 -0 0.8811314
    outer loop
      vertex 6.875964164733887 34.85051345825195 7.336287498474121
      vertex 6.875964164733887 36.64948272705078 7.336287498474121
      vertex 5.698248386383057 35.59940719604492 7.968325138092041
    endloop
  endfacet
  facet normal 0.68940717 -0 0.724374
    outer loop
      vertex 6.875964164733887 34.85051345825195 7.336287498474121
      vertex 7.747683525085449 35.749996185302734 6.50664758682251
      vertex 6.875964164733887 36.64948272705078 7.336287498474121
    endloop
  endfacet
  facet normal -0.45386472 0 0.8910706
    outer loop
      vertex 4.457371711730957 36.64948272705078 7.336287498474121
      vertex 4.457371711730957 34.85051345825195 7.336287498474121
      vertex 5.698248386383057 35.59940719604492 7.968325138092041
    endloop
  endfacet
  facet normal -0.51514626 0.6862241 0.5135376
    outer loop
      vertex 5.230081081390381 37.22955322265625 7.336287498474121
      vertex 4.3842597007751465 37.45836639404297 6.182060718536377
      vertex 4.457371711730957 36.64948272705078 7.336287498474121
    endloop
  endfacet
  facet normal 0 0.862444 0.5061525
    outer loop
      vertex 6.103254795074463 37.22955322265625 7.336287498474121
      vertex 5.819522857666016 37.98159408569336 6.054869174957275
      vertex 5.230081081390381 37.22955322265625 7.336287498474121
    endloop
  endfacet
  facet normal 0.80815846 -0.3389701 0.48164222
    outer loop
      vertex 6.875964164733887 34.85051345825195 7.336287498474121
      vertex 7.547382354736328 34.351104736328125 5.8582258224487305
      vertex 7.747683525085449 35.749996185302734 6.50664758682251
    endloop
  endfacet
  facet normal 0.94870734 0.21981141 0.22723845
    outer loop
      vertex 7.747683525085449 35.749996185302734 6.50664758682251
      vertex 8.207266807556152 35.749996185302734 4.587913990020752
      vertex 7.639379978179932 37.217315673828125 5.539446830749512
    endloop
  endfacet
  facet normal -0.19581674 -0.92297137 0.33133015
    outer loop
      vertex 6.390157699584961 33.29814910888672 5.3134307861328125
      vertex 5.230081081390381 34.27043914794922 7.336287498474121
      vertex 4.921512126922607 33.22472381591797 4.2409210205078125
    endloop
  endfacet
  facet normal 0.6561625 0.7545788 0.00784583
    outer loop
      vertex 7.6533050537109375 37.2276725769043 3.37878155708313
      vertex 6.416648864746094 38.291622161865234 4.476643085479736
      vertex 7.639379978179932 37.217315673828125 5.539446830749512
    endloop
  endfacet
  facet normal -0.8078771 0.33696803 -0.48351538
    outer loop
      vertex 3.5856523513793945 35.749996185302734 2.363330125808716
      vertex 3.792369842529297 37.14411544799805 2.9895176887512207
      vertex 4.457371711730957 36.64948272705078 1.5336897373199463
    endloop
  endfacet
  facet normal -0.6511738 0.75425 -0.08414076
    outer loop
      vertex 4.944465637207031 38.19748306274414 3.515873432159424
      vertex 3.792369842529297 37.14411544799805 2.9895176887512207
      vertex 3.6450319290161133 37.25370407104492 5.112148761749268
    endloop
  endfacet
  facet normal 0.96000844 0.19760725 -0.19833095
    outer loop
      vertex 8.207266807556152 35.749996185302734 4.587913990020752
      vertex 7.747683525085449 35.749996185302734 2.363330125808716
      vertex 7.6533050537109375 37.2276725769043 3.37878155708313
    endloop
  endfacet
  facet normal 0.8140927 -0.40574852 -0.4154771
    outer loop
      vertex 7.747683525085449 35.749996185302734 2.363330125808716
      vertex 7.683446407318115 34.249900817871094 3.702432870864868
      vertex 6.875964164733887 34.85051345825195 1.5336897373199463
    endloop
  endfacet
  facet normal 0.5903403 -0.8071491 -0.00293304
    outer loop
      vertex 7.683446407318115 34.249900817871094 3.702432870864868
      vertex 6.390157699584961 33.29814910888672 5.3134307861328125
      vertex 6.388564109802246 33.303550720214844 3.506204843521118
    endloop
  endfacet
  facet normal -0.063362636 -0.9709613 -0.23069337
    outer loop
      vertex 4.921512126922607 33.22472381591797 4.2409210205078125
      vertex 5.548369884490967 33.53117370605469 2.778935670852661
      vertex 6.388564109802246 33.303550720214844 3.506204843521118
    endloop
  endfacet
  facet normal -0.431031 -0.82412624 -0.36746186
    outer loop
      vertex 5.230081081390381 34.27043914794922 1.5336897373199463
      vertex 4.921512126922607 33.22472381591797 4.2409210205078125
      vertex 3.729891300201416 34.30940628051758 3.2060115337371826
    endloop
  endfacet
  facet normal -0.94709927 -0.2273419 -0.22653621
    outer loop
      vertex 3.125541925430298 35.749996185302734 4.286952972412109
      vertex 3.5856523513793945 35.749996185302734 2.363330125808716
      vertex 3.729891300201416 34.30940628051758 3.2060115337371826
    endloop
  endfacet
  facet normal 0 0.41971442 -0.9076562
    outer loop
      vertex 5.230081081390381 37.22955322265625 1.5336897373199463
      vertex 6.103254795074463 37.22955322265625 1.5336897373199463
      vertex 5.652226448059082 35.831153869628906 0.8870480060577393
    endloop
  endfacet
  facet normal -0 -0.3827706 -0.92384344
    outer loop
      vertex 6.103254795074463 34.27043914794922 1.5336897373199463
      vertex 5.230081081390381 34.27043914794922 1.5336897373199463
      vertex 5.652226448059082 35.831153869628906 0.8870480060577393
    endloop
  endfacet
  facet normal -0.23745538 -0.3163112 -0.9184564
    outer loop
      vertex 5.230081081390381 34.27043914794922 1.5336897373199463
      vertex 4.457371711730957 34.85051345825195 1.5336897373199463
      vertex 5.652226448059082 35.831153869628906 0.8870480060577393
    endloop
  endfacet
  facet normal 0 0.36149812 0.9323728
    outer loop
      vertex 5.698248386383057 35.59940719604492 7.968325138092041
      vertex 6.103254795074463 37.22955322265625 7.336287498474121
      vertex 5.230081081390381 37.22955322265625 7.336287498474121
    endloop
  endfacet
  facet normal 0 -0.429488 0.90307254
    outer loop
      vertex 5.698248386383057 35.59940719604492 7.968325138092041
      vertex 5.230081081390381 34.27043914794922 7.336287498474121
      vertex 6.103254795074463 34.27043914794922 7.336287498474121
    endloop
  endfacet
  facet normal -0.95491284 0.22127223 0.19793954
    outer loop
      vertex 3.6450319290161133 37.25370407104492 5.112148761749268
      vertex 3.125541925430298 35.749996185302734 4.286952972412109
      vertex 3.5856523513793945 35.749996185302734 6.50664758682251
    endloop
  endfacet
  facet normal -0.59443945 0.7590407 0.26551637
    outer loop
      vertex 4.942899703979492 38.202789306640625 5.30463981628418
      vertex 3.6450319290161133 37.25370407104492 5.112148761749268
      vertex 4.3842597007751465 37.45836639404297 6.182060718536377
    endloop
  endfacet
  facet normal -0.061854936 0.9980806 -0.003014882
    outer loop
      vertex 4.942899703979492 38.202789306640625 5.30463981628418
      vertex 6.416648864746094 38.291622161865234 4.476643085479736
      vertex 4.944465637207031 38.19748306274414 3.515873432159424
    endloop
  endfacet
  facet normal 0.8110342 0.3625104 0.45914015
    outer loop
      vertex 7.747683525085449 35.749996185302734 6.50664758682251
      vertex 7.639379978179932 37.217315673828125 5.539446830749512
      vertex 6.875964164733887 36.64948272705078 7.336287498474121
    endloop
  endfacet
  facet normal 0.48618552 -0.75868237 0.43361813
    outer loop
      vertex 7.547382354736328 34.351104736328125 5.8582258224487305
      vertex 6.103254795074463 34.27043914794922 7.336287498474121
      vertex 6.390157699584961 33.29814910888672 5.3134307861328125
    endloop
  endfacet
  facet normal -0.53589624 -0.71386033 0.45079777
    outer loop
      vertex 4.457371711730957 34.85051345825195 7.336287498474121
      vertex 3.6849615573883057 34.2759895324707 5.508280277252197
      vertex 5.230081081390381 34.27043914794922 7.336287498474121
    endloop
  endfacet
  facet normal -0.8112279 -0.36439392 0.4573033
    outer loop
      vertex 3.5856523513793945 35.749996185302734 6.50664758682251
      vertex 3.6849615573883057 34.2759895324707 5.508280277252197
      vertex 4.457371711730957 34.85051345825195 7.336287498474121
    endloop
  endfacet
  facet normal 0.94407064 -0.23999336 0.22612785
    outer loop
      vertex 7.547382354736328 34.351104736328125 5.8582258224487305
      vertex 8.207266807556152 35.749996185302734 4.587913990020752
      vertex 7.747683525085449 35.749996185302734 6.50664758682251
    endloop
  endfacet
  facet normal -0.926924 0.36590222 -0.0832315
    outer loop
      vertex 3.792369842529297 37.14411544799805 2.9895176887512207
      vertex 3.125541925430298 35.749996185302734 4.286952972412109
      vertex 3.6450319290161133 37.25370407104492 5.112148761749268
    endloop
  endfacet
  facet normal -0.52694017 0.70193475 -0.47918856
    outer loop
      vertex 3.792369842529297 37.14411544799805 2.9895176887512207
      vertex 5.230081081390381 37.22955322265625 1.5336897373199463
      vertex 4.457371711730957 36.64948272705078 1.5336897373199463
    endloop
  endfacet
  facet normal 0 0.89858776 -0.4387938
    outer loop
      vertex 5.230081081390381 37.22955322265625 1.5336897373199463
      vertex 4.944465637207031 38.19748306274414 3.515873432159424
      vertex 6.103254795074463 37.22955322265625 1.5336897373199463
    endloop
  endfacet
  facet normal 0.93424046 0.35655996 0.007730131
    outer loop
      vertex 8.207266807556152 35.749996185302734 4.587913990020752
      vertex 7.6533050537109375 37.2276725769043 3.37878155708313
      vertex 7.639379978179932 37.217315673828125 5.539446830749512
    endloop
  endfacet
  facet normal 0.92661625 -0.36829427 0.07577351
    outer loop
      vertex 7.683446407318115 34.249900817871094 3.702432870864868
      vertex 8.207266807556152 35.749996185302734 4.587913990020752
      vertex 7.547382354736328 34.351104736328125 5.8582258224487305
    endloop
  endfacet
  facet normal 0.50992405 -0.6792631 -0.52780586
    outer loop
      vertex 6.875964164733887 34.85051345825195 1.5336897373199463
      vertex 6.93039083480835 34.06889343261719 2.5921833515167236
      vertex 6.103254795074463 34.27043914794922 1.5336897373199463
    endloop
  endfacet
  facet normal -0 -0.85988486 -0.51048803
    outer loop
      vertex 6.103254795074463 34.27043914794922 1.5336897373199463
      vertex 5.548369884490967 33.53117370605469 2.778935670852661
      vertex 5.230081081390381 34.27043914794922 1.5336897373199463
    endloop
  endfacet
  facet normal -0.9280569 -0.37169597 -0.023506477
    outer loop
      vertex 3.125541925430298 35.749996185302734 4.286952972412109
      vertex 3.729891300201416 34.30940628051758 3.2060115337371826
      vertex 3.6849615573883057 34.2759895324707 5.508280277252197
    endloop
  endfacet
  facet normal -0.47595802 0 -0.879468
    outer loop
      vertex 4.457371711730957 34.85051345825195 1.5336897373199463
      vertex 4.457371711730957 36.64948272705078 1.5336897373199463
      vertex 5.652226448059082 35.831153869628906 0.8870480060577393
    endloop
  endfacet
  facet normal 0.6894074 0 -0.7243738
    outer loop
      vertex 6.875964164733887 36.64948272705078 1.5336897373199463
      vertex 7.747683525085449 35.749996185302734 2.363330125808716
      vertex 6.875964164733887 34.85051345825195 1.5336897373199463
    endloop
  endfacet
  facet normal 0.46719941 0 -0.88415194
    outer loop
      vertex 6.875964164733887 36.64948272705078 1.5336897373199463
      vertex 6.875964164733887 34.85051345825195 1.5336897373199463
      vertex 5.652226448059082 35.831153869628906 0.8870480060577393
    endloop
  endfacet
  facet normal -0.6894074 -0 -0.7243738
    outer loop
      vertex 4.457371711730957 36.64948272705078 1.5336897373199463
      vertex 4.457371711730957 34.85051345825195 1.5336897373199463
      vertex 3.5856523513793945 35.749996185302734 2.363330125808716
    endloop
  endfacet
  facet normal -0.25598547 0.34099713 -0.9045399
    outer loop
      vertex 4.457371711730957 36.64948272705078 1.5336897373199463
      vertex 5.230081081390381 37.22955322265625 1.5336897373199463
      vertex 5.652226448059082 35.831153869628906 0.8870480060577393
    endloop
  endfacet
  facet normal 0.25336212 0.33750257 -0.9065868
    outer loop
      vertex 5.652226448059082 35.831153869628906 0.8870480060577393
      vertex 6.103254795074463 37.22955322265625 1.5336897373199463
      vertex 6.875964164733887 36.64948272705078 1.5336897373199463
    endloop
  endfacet
  facet normal 0.23516254 -0.31325692 -0.9200917
    outer loop
      vertex 6.875964164733887 34.85051345825195 1.5336897373199463
      vertex 6.103254795074463 34.27043914794922 1.5336897373199463
      vertex 5.652226448059082 35.831153869628906 0.8870480060577393
    endloop
  endfacet
  facet normal 0.05214031 -0.9986352 -0.003030794
    outer loop
      vertex 4.921512126922607 33.22472381591797 4.2409210205078125
      vertex 6.388564109802246 33.303550720214844 3.506204843521118
      vertex 6.390157699584961 33.29814910888672 5.3134307861328125
    endloop
  endfacet
  facet normal 0.6510715 -0.75514704 0.07654319
    outer loop
      vertex 6.390157699584961 33.29814910888672 5.3134307861328125
      vertex 7.683446407318115 34.249900817871094 3.702432870864868
      vertex 7.547382354736328 34.351104736328125 5.8582258224487305
    endloop
  endfacet
  facet normal 0.3801787 -0.8075864 -0.45085302
    outer loop
      vertex 6.93039083480835 34.06889343261719 2.5921833515167236
      vertex 6.388564109802246 33.303550720214844 3.506204843521118
      vertex 6.103254795074463 34.27043914794922 1.5336897373199463
    endloop
  endfacet
  facet normal -0.15810823 0.8816241 0.4446805
    outer loop
      vertex 5.819522857666016 37.98159408569336 6.054869174957275
      vertex 4.942899703979492 38.202789306640625 5.30463981628418
      vertex 5.230081081390381 37.22955322265625 7.336287498474121
    endloop
  endfacet
  facet normal 0.04387323 0.9770317 0.2085285
    outer loop
      vertex 5.819522857666016 37.98159408569336 6.054869174957275
      vertex 6.30877685546875 37.92605209350586 6.212167263031006
      vertex 6.416648864746094 38.291622161865234 4.476643085479736
    endloop
  endfacet
  facet normal -0.66157705 -0.74949974 -0.02378972
    outer loop
      vertex 3.729891300201416 34.30940628051758 3.2060115337371826
      vertex 4.921512126922607 33.22472381591797 4.2409210205078125
      vertex 3.6849615573883057 34.2759895324707 5.508280277252197
    endloop
  endfacet
  facet normal 0.5937685 -0.75444335 -0.27973968
    outer loop
      vertex 6.388564109802246 33.303550720214844 3.506204843521118
      vertex 6.93039083480835 34.06889343261719 2.5921833515167236
      vertex 7.683446407318115 34.249900817871094 3.702432870864868
    endloop
  endfacet
  facet normal 0.15398364 -0.8782328 -0.45276514
    outer loop
      vertex 6.388564109802246 33.303550720214844 3.506204843521118
      vertex 5.548369884490967 33.53117370605469 2.778935670852661
      vertex 6.103254795074463 34.27043914794922 1.5336897373199463
    endloop
  endfacet
  facet normal -0.9438159 0.24134639 -0.22575088
    outer loop
      vertex 3.792369842529297 37.14411544799805 2.9895176887512207
      vertex 3.5856523513793945 35.749996185302734 2.363330125808716
      vertex 3.125541925430298 35.749996185302734 4.286952972412109
    endloop
  endfacet
  facet normal -0.4889747 0.75398815 -0.43864065
    outer loop
      vertex 3.792369842529297 37.14411544799805 2.9895176887512207
      vertex 4.944465637207031 38.19748306274414 3.515873432159424
      vertex 5.230081081390381 37.22955322265625 1.5336897373199463
    endloop
  endfacet
  facet normal 0.41482416 0.8408754 -0.34763414
    outer loop
      vertex 7.6533050537109375 37.2276725769043 3.37878155708313
      vertex 6.103254795074463 37.22955322265625 1.5336897373199463
      vertex 6.416648864746094 38.291622161865234 4.476643085479736
    endloop
  endfacet
  facet normal 0.81133014 0.36539915 -0.45631886
    outer loop
      vertex 7.6533050537109375 37.2276725769043 3.37878155708313
      vertex 7.747683525085449 35.749996185302734 2.363330125808716
      vertex 6.875964164733887 36.64948272705078 1.5336897373199463
    endloop
  endfacet
  facet normal -0.58999354 0.80740273 -0.0029115968
    outer loop
      vertex 3.6450319290161133 37.25370407104492 5.112148761749268
      vertex 4.942899703979492 38.202789306640625 5.30463981628418
      vertex 4.944465637207031 38.19748306274414 3.515873432159424
    endloop
  endfacet
  facet normal -0.74443966 0.5237096 0.4141713
    outer loop
      vertex 4.3842597007751465 37.45836639404297 6.182060718536377
      vertex 3.6450319290161133 37.25370407104492 5.112148761749268
      vertex 4.457371711730957 36.64948272705078 7.336287498474121
    endloop
  endfacet
  facet normal 0.9559338 -0.21722932 -0.19748916
    outer loop
      vertex 7.683446407318115 34.249900817871094 3.702432870864868
      vertex 7.747683525085449 35.749996185302734 2.363330125808716
      vertex 8.207266807556152 35.749996185302734 4.587913990020752
    endloop
  endfacet
  facet normal 0.74480337 -0.51792127 -0.42074394
    outer loop
      vertex 7.683446407318115 34.249900817871094 3.702432870864868
      vertex 6.93039083480835 34.06889343261719 2.5921833515167236
      vertex 6.875964164733887 34.85051345825195 1.5336897373199463
    endloop
  endfacet
  facet normal -0.53266406 -0.70955485 -0.4613035
    outer loop
      vertex 5.230081081390381 34.27043914794922 1.5336897373199463
      vertex 3.729891300201416 34.30940628051758 3.2060115337371826
      vertex 4.457371711730957 34.85051345825195 1.5336897373199463
    endloop
  endfacet
  facet normal -0.81012714 -0.35432506 -0.4670629
    outer loop
      vertex 3.729891300201416 34.30940628051758 3.2060115337371826
      vertex 3.5856523513793945 35.749996185302734 2.363330125808716
      vertex 4.457371711730957 34.85051345825195 1.5336897373199463
    endloop
  endfacet
  facet normal -0.8142755 0.411675 0.4092421
    outer loop
      vertex 3.6450319290161133 37.25370407104492 5.112148761749268
      vertex 3.5856523513793945 35.749996185302734 6.50664758682251
      vertex 4.457371711730957 36.64948272705078 7.336287498474121
    endloop
  endfacet
  facet normal 0.58728004 0.66597664 0.4599753
    outer loop
      vertex 6.875964164733887 36.64948272705078 7.336287498474121
      vertex 7.639379978179932 37.217315673828125 5.539446830749512
      vertex 6.30877685546875 37.92605209350586 6.212167263031006
    endloop
  endfacet
  facet normal -0.38461885 0.8101278 0.44244924
    outer loop
      vertex 4.942899703979492 38.202789306640625 5.30463981628418
      vertex 4.3842597007751465 37.45836639404297 6.182060718536377
      vertex 5.230081081390381 37.22955322265625 7.336287498474121
    endloop
  endfacet
  facet normal 0.061999686 0.97466147 0.21492107
    outer loop
      vertex 4.942899703979492 38.202789306640625 5.30463981628418
      vertex 5.819522857666016 37.98159408569336 6.054869174957275
      vertex 6.416648864746094 38.291622161865234 4.476643085479736
    endloop
  endfacet
  facet normal -0.95952845 -0.19936244 0.1988963
    outer loop
      vertex 3.6849615573883057 34.2759895324707 5.508280277252197
      vertex 3.5856523513793945 35.749996185302734 6.50664758682251
      vertex 3.125541925430298 35.749996185302734 4.286952972412109
    endloop
  endfacet
  facet normal 0.5276115 -0.70282435 0.4771415
    outer loop
      vertex 6.103254795074463 34.27043914794922 7.336287498474121
      vertex 7.547382354736328 34.351104736328125 5.8582258224487305
      vertex 6.875964164733887 34.85051345825195 7.336287498474121
    endloop
  endfacet
  facet normal 0.513603 0.6841683 0.5178086
    outer loop
      vertex 6.875964164733887 36.64948272705078 7.336287498474121
      vertex 6.30877685546875 37.92605209350586 6.212167263031006
      vertex 6.103254795074463 37.22955322265625 7.336287498474121
    endloop
  endfacet
  facet normal -0.4555329 -0.81173974 -0.36547008
    outer loop
      vertex 5.548369884490967 33.53117370605469 2.778935670852661
      vertex 4.921512126922607 33.22472381591797 4.2409210205078125
      vertex 5.230081081390381 34.27043914794922 1.5336897373199463
    endloop
  endfacet
  facet normal 0 -0.9012937 0.43320858
    outer loop
      vertex 5.230081081390381 34.27043914794922 7.336287498474121
      vertex 6.390157699584961 33.29814910888672 5.3134307861328125
      vertex 6.103254795074463 34.27043914794922 7.336287498474121
    endloop
  endfacet
  facet normal -0.39261705 -0.8587464 0.32925138
    outer loop
      vertex 5.230081081390381 34.27043914794922 7.336287498474121
      vertex 3.6849615573883057 34.2759895324707 5.508280277252197
      vertex 4.921512126922607 33.22472381591797 4.2409210205078125
    endloop
  endfacet
  facet normal 0.16983019 0.9210449 -0.35047683
    outer loop
      vertex 6.103254795074463 37.22955322265625 1.5336897373199463
      vertex 4.944465637207031 38.19748306274414 3.515873432159424
      vertex 6.416648864746094 38.291622161865234 4.476643085479736
    endloop
  endfacet
  facet normal 0.5362137 0.71428794 -0.44974175
    outer loop
      vertex 6.103254795074463 37.22955322265625 1.5336897373199463
      vertex 7.6533050537109375 37.2276725769043 3.37878155708313
      vertex 6.875964164733887 36.64948272705078 1.5336897373199463
    endloop
  endfacet
  facet normal -0.06907831 0.85363173 0.5162761
    outer loop
      vertex 6.30877685546875 37.92605209350586 6.212167263031006
      vertex 5.819522857666016 37.98159408569336 6.054869174957275
      vertex 6.103254795074463 37.22955322265625 7.336287498474121
    endloop
  endfacet
  facet normal 0.5390066 0.8168336 0.2055596
    outer loop
      vertex 6.30877685546875 37.92605209350586 6.212167263031006
      vertex 7.639379978179932 37.217315673828125 5.539446830749512
      vertex 6.416648864746094 38.291622161865234 4.476643085479736
    endloop
  endfacet
  facet normal -0.23116705 0.3079368 0.92289585
    outer loop
      vertex 15.896749496459961 37.22955322265625 7.336287498474121
      vertex 15.124039649963379 36.64948272705078 7.336287498474121
      vertex 16.39091682434082 35.67326354980469 7.979343891143799
    endloop
  endfacet
  facet normal 0.24031724 0.32012534 0.9163882
    outer loop
      vertex 16.39091682434082 35.67326354980469 7.979343891143799
      vertex 17.542631149291992 36.64948272705078 7.336287498474121
      vertex 16.769922256469727 37.22955322265625 7.336287498474121
    endloop
  endfacet
  facet normal 0.2582702 -0.34403813 0.9027371
    outer loop
      vertex 16.39091682434082 35.67326354980469 7.979343891143799
      vertex 16.769922256469727 34.27043914794922 7.336287498474121
      vertex 17.542631149291992 34.85051345825195 7.336287498474121
    endloop
  endfacet
  facet normal -0.24787322 -0.33018887 0.9107877
    outer loop
      vertex 15.124039649963379 34.85051345825195 7.336287498474121
      vertex 15.896749496459961 34.27043914794922 7.336287498474121
      vertex 16.39091682434082 35.67326354980469 7.979343891143799
    endloop
  endfacet
  facet normal -0.68940717 0 0.724374
    outer loop
      vertex 15.124039649963379 36.64948272705078 7.336287498474121
      vertex 14.252320289611816 35.749996185302734 6.50664758682251
      vertex 15.124039649963379 34.85051345825195 7.336287498474121
    endloop
  endfacet
  facet normal 0.48750436 -0 0.87312055
    outer loop
      vertex 17.542631149291992 34.85051345825195 7.336287498474121
      vertex 17.542631149291992 36.64948272705078 7.336287498474121
      vertex 16.39091682434082 35.67326354980469 7.979343891143799
    endloop
  endfacet
  facet normal 0.68940717 -0 0.724374
    outer loop
      vertex 17.542631149291992 34.85051345825195 7.336287498474121
      vertex 18.414350509643555 35.749996185302734 6.50664758682251
      vertex 17.542631149291992 36.64948272705078 7.336287498474121
    endloop
  endfacet
  facet normal -0.45262107 0 0.89170295
    outer loop
      vertex 15.124039649963379 36.64948272705078 7.336287498474121
      vertex 15.124039649963379 34.85051345825195 7.336287498474121
      vertex 16.39091682434082 35.67326354980469 7.979343891143799
    endloop
  endfacet
  facet normal -0.5217323 0.6949977 0.49474594
    outer loop
      vertex 15.896749496459961 37.22955322265625 7.336287498474121
      vertex 15.145612716674805 37.59418487548828 6.031960487365723
      vertex 15.124039649963379 36.64948272705078 7.336287498474121
    endloop
  endfacet
  facet normal 0.53269213 0.70959646 0.46120703
    outer loop
      vertex 17.542631149291992 36.64948272705078 7.336287498474121
      vertex 18.27048683166504 37.19086456298828 5.6626667976379395
      vertex 16.769922256469727 37.22955322265625 7.336287498474121
    endloop
  endfacet
  facet normal 0.81142193 -0.36632878 0.45540938
    outer loop
      vertex 17.542631149291992 34.85051345825195 7.336287498474121
      vertex 18.32275390625 34.2702522277832 5.479551315307617
      vertex 18.414350509643555 35.749996185302734 6.50664758682251
    endloop
  endfacet
  facet normal -0.06641725 -0.8685047 0.49121115
    outer loop
      vertex 15.896749496459961 34.27043914794922 7.336287498474121
      vertex 15.652292251586914 33.44199752807617 5.838476181030273
      vertex 16.965152740478516 33.608821868896484 6.310949802398682
    endloop
  endfacet
  facet normal 0.65841913 0.75177896 0.036230072
    outer loop
      vertex 18.27048683166504 37.19086456298828 5.6626667976379395
      vertex 18.334211349487305 37.23826217651367 3.5210764408111572
      vertex 17.083343505859375 38.29171371459961 4.394180774688721
    endloop
  endfacet
  facet normal 0.95086384 0.2215933 0.21622771
    outer loop
      vertex 18.414350509643555 35.749996185302734 6.50664758682251
      vertex 18.888816833496094 35.749996185302734 4.4201765060424805
      vertex 18.27048683166504 37.19086456298828 5.6626667976379395
    endloop
  endfacet
  facet normal -0.8097451 0.35111693 -0.47013807
    outer loop
      vertex 14.252320289611816 35.749996185302734 2.363330125808716
      vertex 14.409382820129395 37.18104934692383 3.1615772247314453
      vertex 15.124039649963379 36.64948272705078 1.5336897373199463
    endloop
  endfacet
  facet normal -0.6598746 0.7498532 -0.047809005
    outer loop
      vertex 15.582884788513184 38.293216705322266 4.408163547515869
      vertex 14.409382820129395 37.18104934692383 3.1615772247314453
      vertex 14.326269149780273 37.24286651611328 5.278299808502197
    endloop
  endfacet
  facet normal 0.9501695 0.22166923 -0.21918187
    outer loop
      vertex 18.888816833496094 35.749996185302734 4.4201765060424805
      vertex 18.414350509643555 35.749996185302734 2.363330125808716
      vertex 18.334211349487305 37.23826217651367 3.5210764408111572
    endloop
  endfacet
  facet normal 0.8103394 -0.3561626 -0.4652937
    outer loop
      vertex 18.414350509643555 35.749996185302734 2.363330125808716
      vertex 18.277761459350586 34.30371856689453 3.232515573501587
      vertex 17.542631149291992 34.85051345825195 1.5336897373199463
    endloop
  endfacet
  facet normal -0 -0.87124 -0.49085718
    outer loop
      vertex 16.769922256469727 34.27043914794922 1.5336897373199463
      vertex 16.400928497314453 33.4678955078125 2.958153247833252
      vertex 15.896749496459961 34.27043914794922 1.5336897373199463
    endloop
  endfacet
  facet normal -0.27281684 -0.8724749 -0.40541148
    outer loop
      vertex 15.598727226257324 33.260467529296875 3.9077725410461426
      vertex 15.143448829650879 34.00468444824219 2.6125378608703613
      vertex 15.896749496459961 34.27043914794922 1.5336897373199463
    endloop
  endfacet
  facet normal -0.94885415 -0.22095272 -0.2255122
    outer loop
      vertex 13.789783477783203 35.749996185302734 4.30947732925415
      vertex 14.252320289611816 35.749996185302734 2.363330125808716
      vertex 14.37065601348877 34.290138244628906 3.2957684993743896
    endloop
  endfacet
  facet normal 0 0.4067419 -0.9135431
    outer loop
      vertex 15.896749496459961 37.22955322265625 1.5336897373199463
      vertex 16.769922256469727 37.22955322265625 1.5336897373199463
      vertex 16.341928482055664 35.74379348754883 0.8721766471862793
    endloop
  endfacet
  facet normal -0 -0.40959403 -0.9122679
    outer loop
      vertex 16.769922256469727 34.27043914794922 1.5336897373199463
      vertex 15.896749496459961 34.27043914794922 1.5336897373199463
      vertex 16.341928482055664 35.74379348754883 0.8721766471862793
    endloop
  endfacet
  facet normal -0.24982011 -0.3327823 -0.90931064
    outer loop
      vertex 15.896749496459961 34.27043914794922 1.5336897373199463
      vertex 15.124039649963379 34.85051345825195 1.5336897373199463
      vertex 16.341928482055664 35.74379348754883 0.8721766471862793
    endloop
  endfacet
  facet normal 0 0.38188246 0.9242109
    outer loop
      vertex 16.39091682434082 35.67326354980469 7.979343891143799
      vertex 16.769922256469727 37.22955322265625 7.336287498474121
      vertex 15.896749496459961 37.22955322265625 7.336287498474121
    endloop
  endfacet
  facet normal 0 -0.4167057 0.90904146
    outer loop
      vertex 16.39091682434082 35.67326354980469 7.979343891143799
      vertex 15.896749496459961 34.27043914794922 7.336287498474121
      vertex 16.769922256469727 34.27043914794922 7.336287498474121
    endloop
  endfacet
  facet normal -0.9561028 0.21297021 0.20127377
    outer loop
      vertex 14.326269149780273 37.24286651611328 5.278299808502197
      vertex 13.789783477783203 35.749996185302734 4.30947732925415
      vertex 14.252320289611816 35.749996185302734 6.50664758682251
    endloop
  endfacet
  facet normal -0.5395981 0.8163055 0.20610482
    outer loop
      vertex 15.582884788513184 38.293216705322266 4.408163547515869
      vertex 14.326269149780273 37.24286651611328 5.278299808502197
      vertex 15.145612716674805 37.59418487548828 6.031960487365723
    endloop
  endfacet
  facet normal 0.1046157 0.9944771 -0.008421092
    outer loop
      vertex 16.354084014892578 38.21844482421875 5.1587347984313965
      vertex 16.31863021850586 38.20918655395508 3.6249477863311768
      vertex 15.582884788513184 38.293216705322266 4.408163547515869
    endloop
  endfacet
  facet normal 0.8101383 0.35441613 0.4669745
    outer loop
      vertex 18.27048683166504 37.19086456298828 5.6626667976379395
      vertex 17.542631149291992 36.64948272705078 7.336287498474121
      vertex 18.414350509643555 35.749996185302734 6.50664758682251
    endloop
  endfacet
  facet normal -0.59747267 -0.67852414 0.42735395
    outer loop
      vertex 15.652292251586914 33.44199752807617 5.838476181030273
      vertex 15.124039649963379 34.85051345825195 7.336287498474121
      vertex 14.326326370239258 34.25716781616211 5.278950214385986
    endloop
  endfacet
  facet normal -0.8134982 -0.39293084 0.42874938
    outer loop
      vertex 14.252320289611816 35.749996185302734 6.50664758682251
      vertex 14.326326370239258 34.25716781616211 5.278950214385986
      vertex 15.124039649963379 34.85051345825195 7.336287498474121
    endloop
  endfacet
  facet normal 0.9291827 0.36788386 0.035790477
    outer loop
      vertex 18.334211349487305 37.23826217651367 3.5210764408111572
      vertex 18.27048683166504 37.19086456298828 5.6626667976379395
      vertex 18.888816833496094 35.749996185302734 4.4201765060424805
    endloop
  endfacet
  facet normal 0.9534638 -0.2095146 0.21681894
    outer loop
      vertex 18.32275390625 34.2702522277832 5.479551315307617
      vertex 18.888816833496094 35.749996185302734 4.4201765060424805
      vertex 18.414350509643555 35.749996185302734 6.50664758682251
    endloop
  endfacet
  facet normal 0.5254924 -0.826901 0.20023096
    outer loop
      vertex 18.32275390625 34.2702522277832 5.479551315307617
      vertex 16.965152740478516 33.608821868896484 6.310949802398682
      vertex 17.08235740661621 33.21162414550781 4.363032341003418
    endloop
  endfacet
  facet normal -0.06190072 -0.9935382 0.095132515
    outer loop
      vertex 17.08235740661621 33.21162414550781 4.363032341003418
      vertex 15.652292251586914 33.44199752807617 5.838476181030273
      vertex 15.598727226257324 33.260467529296875 3.9077725410461426
    endloop
  endfacet
  facet normal -0.54971236 -0.8301271 0.09330191
    outer loop
      vertex 15.598727226257324 33.260467529296875 3.9077725410461426
      vertex 15.652292251586914 33.44199752807617 5.838476181030273
      vertex 14.326326370239258 34.25716781616211 5.278950214385986
    endloop
  endfacet
  facet normal -0.9298976 0.3647819 -0.047165833
    outer loop
      vertex 14.409382820129395 37.18104934692383 3.1615772247314453
      vertex 13.789783477783203 35.749996185302734 4.30947732925415
      vertex 14.326269149780273 37.24286651611328 5.278299808502197
    endloop
  endfacet
  facet normal -0.5316189 0.7081677 -0.4646288
    outer loop
      vertex 15.124039649963379 36.64948272705078 1.5336897373199463
      vertex 14.409382820129395 37.18104934692383 3.1615772247314453
      vertex 15.896749496459961 37.22955322265625 1.5336897373199463
    endloop
  endfacet
  facet normal -0.2815194 0.88950855 -0.35989082
    outer loop
      vertex 16.31863021850586 38.20918655395508 3.6249477863311768
      vertex 15.896749496459961 37.22955322265625 1.5336897373199463
      vertex 15.582884788513184 38.293216705322266 4.408163547515869
    endloop
  endfacet
  facet normal 0.65628874 0.6111571 -0.4424614
    outer loop
      vertex 17.542631149291992 36.64948272705078 1.5336897373199463
      vertex 17.50225257873535 37.56580352783203 2.73948073387146
      vertex 18.334211349487305 37.23826217651367 3.5210764408111572
    endloop
  endfacet
  facet normal 0.8129412 0.38420686 -0.43762055
    outer loop
      vertex 18.334211349487305 37.23826217651367 3.5210764408111572
      vertex 18.414350509643555 35.749996185302734 2.363330125808716
      vertex 17.542631149291992 36.64948272705078 1.5336897373199463
    endloop
  endfacet
  facet normal 0.9278371 -0.3722049 -0.024121555
    outer loop
      vertex 18.277761459350586 34.30371856689453 3.232515573501587
      vertex 18.888816833496094 35.749996185302734 4.4201765060424805
      vertex 18.32275390625 34.2702522277832 5.479551315307617
    endloop
  endfacet
  facet normal 0.02657195 -0.98106456 -0.19184971
    outer loop
      vertex 15.598727226257324 33.260467529296875 3.9077725410461426
      vertex 16.400928497314453 33.4678955078125 2.958153247833252
      vertex 17.08235740661621 33.21162414550781 4.363032341003418
    endloop
  endfacet
  facet normal -0.6389504 -0.61091393 -0.4674682
    outer loop
      vertex 15.143448829650879 34.00468444824219 2.6125378608703613
      vertex 14.37065601348877 34.290138244628906 3.2957684993743896
      vertex 15.124039649963379 34.85051345825195 1.5336897373199463
    endloop
  endfacet
  facet normal -0.93506444 -0.35346487 -0.026777659
    outer loop
      vertex 13.789783477783203 35.749996185302734 4.30947732925415
      vertex 14.37065601348877 34.290138244628906 3.2957684993743896
      vertex 14.326326370239258 34.25716781616211 5.278950214385986
    endloop
  endfacet
  facet normal -0.47729996 0 -0.87874043
    outer loop
      vertex 15.124039649963379 34.85051345825195 1.5336897373199463
      vertex 15.124039649963379 36.64948272705078 1.5336897373199463
      vertex 16.341928482055664 35.74379348754883 0.8721766471862793
    endloop
  endfacet
  facet normal 0.6894074 0 -0.7243738
    outer loop
      vertex 17.542631149291992 36.64948272705078 1.5336897373199463
      vertex 18.414350509643555 35.749996185302734 2.363330125808716
      vertex 17.542631149291992 34.85051345825195 1.5336897373199463
    endloop
  endfacet
  facet normal 0.48254958 0 -0.8758687
    outer loop
      vertex 17.542631149291992 36.64948272705078 1.5336897373199463
      vertex 17.542631149291992 34.85051345825195 1.5336897373199463
      vertex 16.341928482055664 35.74379348754883 0.8721766471862793
    endloop
  endfacet
  facet normal -0.6894074 -0 -0.7243738
    outer loop
      vertex 15.124039649963379 36.64948272705078 1.5336897373199463
      vertex 15.124039649963379 34.85051345825195 1.5336897373199463
      vertex 14.252320289611816 35.749996185302734 2.363330125808716
    endloop
  endfacet
  facet normal -0.24840833 0.33090386 -0.9103823
    outer loop
      vertex 15.124039649963379 36.64948272705078 1.5336897373199463
      vertex 15.896749496459961 37.22955322265625 1.5336897373199463
      vertex 16.341928482055664 35.74379348754883 0.8721766471862793
    endloop
  endfacet
  facet normal 0.2498757 0.33285812 -0.9092676
    outer loop
      vertex 16.341928482055664 35.74379348754883 0.8721766471862793
      vertex 16.769922256469727 37.22955322265625 1.5336897373199463
      vertex 17.542631149291992 36.64948272705078 1.5336897373199463
    endloop
  endfacet
  facet normal 0.25130248 -0.33475652 -0.90817684
    outer loop
      vertex 17.542631149291992 34.85051345825195 1.5336897373199463
      vertex 16.769922256469727 34.27043914794922 1.5336897373199463
      vertex 16.341928482055664 35.74379348754883 0.8721766471862793
    endloop
  endfacet
  facet normal -0.2528081 -0.87846464 -0.40544787
    outer loop
      vertex 16.400928497314453 33.4678955078125 2.958153247833252
      vertex 15.598727226257324 33.260467529296875 3.9077725410461426
      vertex 15.896749496459961 34.27043914794922 1.5336897373199463
    endloop
  endfacet
  facet normal 0.42554253 -0.8311075 -0.35801375
    outer loop
      vertex 16.769922256469727 34.27043914794922 1.5336897373199463
      vertex 17.08235740661621 33.21162414550781 4.363032341003418
      vertex 16.400928497314453 33.4678955078125 2.958153247833252
    endloop
  endfacet
  facet normal 0.6616028 -0.74945706 -0.024409365
    outer loop
      vertex 17.08235740661621 33.21162414550781 4.363032341003418
      vertex 18.277761459350586 34.30371856689453 3.232515573501587
      vertex 18.32275390625 34.2702522277832 5.479551315307617
    endloop
  endfacet
  facet normal -0.63431674 -0.7726008 -0.02702325
    outer loop
      vertex 14.37065601348877 34.290138244628906 3.2957684993743896
      vertex 15.598727226257324 33.260467529296875 3.9077725410461426
      vertex 14.326326370239258 34.25716781616211 5.278950214385986
    endloop
  endfacet
  facet normal -0.51111525 -0.6808503 -0.52459896
    outer loop
      vertex 15.143448829650879 34.00468444824219 2.6125378608703613
      vertex 15.124039649963379 34.85051345825195 1.5336897373199463
      vertex 15.896749496459961 34.27043914794922 1.5336897373199463
    endloop
  endfacet
  facet normal 0.95021355 -0.22147013 -0.21919203
    outer loop
      vertex 18.277761459350586 34.30371856689453 3.232515573501587
      vertex 18.414350509643555 35.749996185302734 2.363330125808716
      vertex 18.888816833496094 35.749996185302734 4.4201765060424805
    endloop
  endfacet
  facet normal 0.53325903 -0.71034694 -0.45939314
    outer loop
      vertex 17.542631149291992 34.85051345825195 1.5336897373199463
      vertex 18.277761459350586 34.30371856689453 3.232515573501587
      vertex 16.769922256469727 34.27043914794922 1.5336897373199463
    endloop
  endfacet
  facet normal -0.9469393 0.22946729 -0.22505713
    outer loop
      vertex 14.409382820129395 37.18104934692383 3.1615772247314453
      vertex 14.252320289611816 35.749996185302734 2.363330125808716
      vertex 13.789783477783203 35.749996185302734 4.30947732925415
    endloop
  endfacet
  facet normal -0.66102606 0.61286026 0.4329513
    outer loop
      vertex 15.145612716674805 37.59418487548828 6.031960487365723
      vertex 14.326269149780273 37.24286651611328 5.278299808502197
      vertex 15.124039649963379 36.64948272705078 7.336287498474121
    endloop
  endfacet
  facet normal -0.5353718 -0.7998303 -0.27138254
    outer loop
      vertex 14.37065601348877 34.290138244628906 3.2957684993743896
      vertex 15.143448829650879 34.00468444824219 2.6125378608703613
      vertex 15.598727226257324 33.260467529296875 3.9077725410461426
    endloop
  endfacet
  facet normal -0.81080276 -0.36033607 -0.46125573
    outer loop
      vertex 14.37065601348877 34.290138244628906 3.2957684993743896
      vertex 14.252320289611816 35.749996185302734 2.363330125808716
      vertex 15.124039649963379 34.85051345825195 1.5336897373199463
    endloop
  endfacet
  facet normal 0.5317523 0.8168178 -0.22371458
    outer loop
      vertex 18.334211349487305 37.23826217651367 3.5210764408111572
      vertex 17.50225257873535 37.56580352783203 2.73948073387146
      vertex 17.083343505859375 38.29171371459961 4.394180774688721
    endloop
  endfacet
  facet normal 0.517603 0.6894962 -0.5066381
    outer loop
      vertex 17.50225257873535 37.56580352783203 2.73948073387146
      vertex 17.542631149291992 36.64948272705078 1.5336897373199463
      vertex 16.769922256469727 37.22955322265625 1.5336897373199463
    endloop
  endfacet
  facet normal -0.81350327 0.39300892 0.42866826
    outer loop
      vertex 14.326269149780273 37.24286651611328 5.278299808502197
      vertex 14.252320289611816 35.749996185302734 6.50664758682251
      vertex 15.124039649963379 36.64948272705078 7.336287498474121
    endloop
  endfacet
  facet normal -0.5751405 0.796189 0.18787362
    outer loop
      vertex 15.145612716674805 37.59418487548828 6.031960487365723
      vertex 15.680534362792969 37.96228790283203 6.109541893005371
      vertex 15.582884788513184 38.293216705322266 4.408163547515869
    endloop
  endfacet
  facet normal 0.27954733 0.8931861 0.35223842
    outer loop
      vertex 16.354084014892578 38.21844482421875 5.1587347984313965
      vertex 16.769922256469727 37.22955322265625 7.336287498474121
      vertex 17.083343505859375 38.29171371459961 4.394180774688721
    endloop
  endfacet
  facet normal 0.5773827 0.7913485 -0.20098937
    outer loop
      vertex 17.50225257873535 37.56580352783203 2.73948073387146
      vertex 16.977453231811523 37.932857513427734 2.677077293395996
      vertex 17.083343505859375 38.29171371459961 4.394180774688721
    endloop
  endfacet
  facet normal -0.5281891 -0.7035942 0.47536454
    outer loop
      vertex 15.124039649963379 34.85051345825195 7.336287498474121
      vertex 15.652292251586914 33.44199752807617 5.838476181030273
      vertex 15.896749496459961 34.27043914794922 7.336287498474121
    endloop
  endfacet
  facet normal -0.95611197 -0.21292719 0.2012757
    outer loop
      vertex 14.326326370239258 34.25716781616211 5.278950214385986
      vertex 14.252320289611816 35.749996185302734 6.50664758682251
      vertex 13.789783477783203 35.749996185302734 4.30947732925415
    endloop
  endfacet
  facet normal -0.10370876 0.9946012 -0.003606379
    outer loop
      vertex 16.31863021850586 38.20918655395508 3.6249477863311768
      vertex 16.354084014892578 38.21844482421875 5.1587347984313965
      vertex 17.083343505859375 38.29171371459961 4.394180774688721
    endloop
  endfacet
  facet normal 0.5078783 -0.6765376 0.5332509
    outer loop
      vertex 16.965152740478516 33.608821868896484 6.310949802398682
      vertex 17.542631149291992 34.85051345825195 7.336287498474121
      vertex 16.769922256469727 34.27043914794922 7.336287498474121
    endloop
  endfacet
  facet normal 0 -0.8402559 0.54219
    outer loop
      vertex 15.896749496459961 34.27043914794922 7.336287498474121
      vertex 16.965152740478516 33.608821868896484 6.310949802398682
      vertex 16.769922256469727 34.27043914794922 7.336287498474121
    endloop
  endfacet
  facet normal 0 0.858514 0.5127901
    outer loop
      vertex 16.769922256469727 37.22955322265625 7.336287498474121
      vertex 15.680534362792969 37.96228790283203 6.109541893005371
      vertex 15.896749496459961 37.22955322265625 7.336287498474121
    endloop
  endfacet
  facet normal 0 0.8517643 -0.5239251
    outer loop
      vertex 15.896749496459961 37.22955322265625 1.5336897373199463
      vertex 16.977453231811523 37.932857513427734 2.677077293395996
      vertex 16.769922256469727 37.22955322265625 1.5336897373199463
    endloop
  endfacet
  facet normal 0.18638428 0.90746754 0.37651503
    outer loop
      vertex 16.769922256469727 37.22955322265625 7.336287498474121
      vertex 16.354084014892578 38.21844482421875 5.1587347984313965
      vertex 15.680534362792969 37.96228790283203 6.109541893005371
    endloop
  endfacet
  facet normal 0.40992388 0.8431048 0.34804702
    outer loop
      vertex 16.769922256469727 37.22955322265625 7.336287498474121
      vertex 18.27048683166504 37.19086456298828 5.6626667976379395
      vertex 17.083343505859375 38.29171371459961 4.394180774688721
    endloop
  endfacet
  facet normal -0.41604447 0.83710676 -0.35518903
    outer loop
      vertex 15.896749496459961 37.22955322265625 1.5336897373199463
      vertex 14.409382820129395 37.18104934692383 3.1615772247314453
      vertex 15.582884788513184 38.293216705322266 4.408163547515869
    endloop
  endfacet
  facet normal -0.17841189 0.90437424 -0.387655
    outer loop
      vertex 15.896749496459961 37.22955322265625 1.5336897373199463
      vertex 16.31863021850586 38.20918655395508 3.6249477863311768
      vertex 16.977453231811523 37.932857513427734 2.677077293395996
    endloop
  endfacet
  facet normal 0.42201576 -0.83279914 -0.35825735
    outer loop
      vertex 16.769922256469727 34.27043914794922 1.5336897373199463
      vertex 18.277761459350586 34.30371856689453 3.232515573501587
      vertex 17.08235740661621 33.21162414550781 4.363032341003418
    endloop
  endfacet
  facet normal 0.59989005 -0.65655833 0.45723417
    outer loop
      vertex 16.965152740478516 33.608821868896484 6.310949802398682
      vertex 18.32275390625 34.2702522277832 5.479551315307617
      vertex 17.542631149291992 34.85051345825195 7.336287498474121
    endloop
  endfacet
  facet normal 0.05138893 -0.97793275 0.20250122
    outer loop
      vertex 16.965152740478516 33.608821868896484 6.310949802398682
      vertex 15.652292251586914 33.44199752807617 5.838476181030273
      vertex 17.08235740661621 33.21162414550781 4.363032341003418
    endloop
  endfacet
  facet normal -0.53900325 0.67790914 0.49991474
    outer loop
      vertex 15.680534362792969 37.96228790283203 6.109541893005371
      vertex 15.145612716674805 37.59418487548828 6.031960487365723
      vertex 15.896749496459961 37.22955322265625 7.336287498474121
    endloop
  endfacet
  facet normal -0.095472254 0.9760789 0.19533306
    outer loop
      vertex 15.680534362792969 37.96228790283203 6.109541893005371
      vertex 16.354084014892578 38.21844482421875 5.1587347984313965
      vertex 15.582884788513184 38.293216705322266 4.408163547515869
    endloop
  endfacet
  facet normal 0.106018 0.9720061 -0.20967676
    outer loop
      vertex 16.977453231811523 37.932857513427734 2.677077293395996
      vertex 16.31863021850586 38.20918655395508 3.6249477863311768
      vertex 17.083343505859375 38.29171371459961 4.394180774688721
    endloop
  endfacet
  facet normal 0.5325094 0.674403 -0.5114825
    outer loop
      vertex 16.977453231811523 37.932857513427734 2.677077293395996
      vertex 17.50225257873535 37.56580352783203 2.73948073387146
      vertex 16.769922256469727 37.22955322265625 1.5336897373199463
    endloop
  endfacet
endsolid ascii_stl
